<svg xmlns="http://www.w3.org/2000/svg" xmlns:xlink="http://www.w3.org/1999/xlink" width="769" height="478" xmlns:v="https://vecta.io/nano"><defs><linearGradient x1="35.6227043%" y1="76.267445%" x2="47.2857659%" y2="50%" id="A"><stop stop-color="#b6e2db" offset="0%"/><stop stop-color="#daf4e1" offset="100%"/></linearGradient><path d="M138.19 23.84l-1.423.902a5.23 5.23 0 0 1-1.498.648L125.184 28c-9.435 2.43-17.455 8.617-22.188 17.115-.644 1.156-.823 2.514-.5 3.797l6.98 27.858c.062.245.103.486.13.737.26 2.582 1.695 17.814-.038 20.404-1.517 2.27-.605 12.414-.18 16.363a5.18 5.18 0 0 1-.594 3.018l-4.814 8.916c-.662 1.23-.805 2.673-.392 4.008l5.34 17.273c.41 1.323.275 2.756-.377 3.98l-3.2 6.002c-.905 1.704-2.682 2.77-4.615 2.77H72.47a5.22 5.22 0 0 0-5.175 4.498l-7.056 50.805a5.21 5.21 0 0 1-1.023 2.45l-20.193 26.365a5.22 5.22 0 0 1-3.678 2.027l-7.358.668a5.17 5.17 0 0 1-1.526-.086L16.4 244.895c-1.85-.38-3.354-1.73-3.926-3.527l-3.037-9.512a5.22 5.22 0 0 0-4.977-3.632H.985c-1.603 0 .015 137.42.015 137.42l456.145-.36c-.137-.7-.417-2.316-.82-2.906l-9.712-14.125c-8.186-11.915-19.052-21.742-31.738-28.703-27.348-15.004-74.568-40.606-79.608-41.273l-1.234-.174c-10.733-1.6-21.055-5.25-30.507-10.57l-22.852-12.862c-1.086-.61-1.917-1.588-2.344-2.756l-6.74-18.472c-.114-.313-.198-.638-.25-.97l-5.358-33.875a68.63 68.63 0 0 1 4.65-37.63l5.626-13.207c1.365-3.204-.743-6.82-4.2-7.218-11.25-1.294-21.426-7.273-28.02-16.458l-13.072-18.212a5.2 5.2 0 0 1-.978-3.034v-26.79a5.21 5.21 0 0 0-2.21-4.258l-6.3-4.44a5.21 5.21 0 0 1-2.211-4.26V40.25a5.23 5.23 0 0 0-.302-1.747l-2.748-7.7a62.65 62.65 0 0 0-17.299-25.7 17.54 17.54 0 0 0-11.682-4.45c-2.238 0-4.495.428-6.643 1.306-14.75 6.035-28.94 13.36-42.395 21.893z" id="B"/><ellipse id="C" cx="107.999" cy="108.345" rx="107.999" ry="108.345"/></defs><g fill="none" fill-rule="evenodd"><path d="M237.79-146.95s11.263 29.922 13.08 50.272c3.208 35.95-8.39 69.145-34.797 99.58-22.946 32.937-20.784 72.37 6.487 118.3s27.27 92.545 0 139.846c-46.068 77.628-39.283 139.04 20.355 184.233s27.804 103.75-95.503 175.666h473.28v-767.9H237.79z" transform="matrix(0 1 -1 0 621.050365 -146.050365)" fill="url(#A)"/><g transform="matrix(-1 0 0 1 769 109.357569)"><mask id="D" fill="#fff"><use xlink:href="#B"/></mask><path fill="#c7f0ec" mask="url(#D)" d="M-230 560.642h973v-591h-973z"/><path d="M147.892-.89l1.704 64.384 17.613 29.35s2.837 22.724 0 27.46-14.8 17.043-15.9 23.67-4.564 17.99 0 20.83 10.238 13.255 13.074 13.255 47.27-6.628 47.27-6.628l23.635-7.575v6.63l-13.236 11.36-29.305 6.63c-4.728.947-30.253 9.467-30.253 9.467s-6.414 18.938-5.097 21.778-4.152 6.628 0 10.414 15.497 13.256 16.443 17.043-3.782 17.043-3.782 17.043-6.617 14.202-7.563 24.618 12.29 24.62 12.29 24.62l21.812 16.096c11.277 8.52 18.63 7.573 21.57 15.148s7.67 10.415 17.123 19.884 47.27 6.628 52.94 4.734 18.908-13.255 25.526-4.734 9.454 13.568 9.454 19.093 5.672 9.312 0 14.047-11.345 4.734-12.29 13.255 8.51 18 8.51 18l30.252 19.883c7.564 4.734 19.086 2.84 17.107 12.31s-4.816 16.096-4.816 16.096l-1.89 11.36s-1.863 2.9-1.876 11.865l-.015 13.7-314.813 27.46-184.35-27.46L-210 492.407l54.345-122.14L.82 156.936 127.502-10.358l20.4 9.47z" fill="#aedcd3" mask="url(#D)"/></g><g transform="translate(170)"><g transform="matrix(.965926 -.258819 .258819 .965926 .228557 56.313139)"><mask id="E" fill="#fff"><use xlink:href="#C"/></mask><use fill="#02ccba" xlink:href="#C"/><g mask="url(#E)"><g transform="translate(-18 -30.096)"><path d="M39.583 32.484c17.56 18.108 36.902 27.9 63.06 24.955 12.213-1.37 21.287-8.37 34.107-4.69 54.313 15.583 11.904 14.638 58.406 18.105 7.25.54 14.68 1.404 21.814 0 6.607-1.3 13.386-12.25 18.58-7.95 7.543 6.244 12.394 20.88 6.492 28.703-9.683 12.834-32.278-3.116-42.606-5.146-15.38-3.024-29.89 12.126-43.895 6.08-13.276-5.73-25.356-24.1-42.97-19.395-43.918 11.732-13.696 19.44-68.495 25.526-11.114 1.235-37.888 11.2-33.536.876L0 94.983c89.2-211.834 14.197 6.436 36.345-59.06l3.237-3.44z" fill="#02a899"/><path d="M1.5 130.102c33.295 6.328 53.513-8.668 84.512-20.315 21.458-8.062 36.05 3.062 56.79 5.55 23.2 2.78 12.424-5.043 31.9-10.53 16.152-4.55 38.567 8.193 51.052 10.254 7.672 1.267 15.912-3.158 23.314-.77 2.79.9-3.68 4.727-6.155 6.304-4.15 2.644-8.5 6.468-13.406 6.163-8.1-.503-15-6.37-22.854-8.414-2.43-.633-5.18-.417-7.518.508-8.116 3.213-15.88 7.322-23.414 11.74-4.07 2.385-6.62 7.727-11.253 8.585-7.752 1.436-16.16.61-23.552-2.14-10.855-4.036-19.428-12.772-29.894-17.734-3.652-1.73-8.247-3.75-11.935-2.098-8.155 3.65-13.517 11.776-20.91 16.803-4.964 3.375-11.05 4.86-15.984 8.282-6.162 4.273-10.812 10.537-17.083 14.648-7.993 5.24-16.407 10.096-25.432 13.223-4.014 1.4-10.977 3.876-12.738 0-5.08-11.178-2.61-24.43-3.917-36.644L1.5 130.102z" fill="#06decb"/><g fill="#02a899"><path d="M19.5 190.456c24.483-.64 42.442.605 64.195-10.175 24.115-11.95 47.297-33.062 76.218-29.376 21.227 2.705 32.396 23.437 55.88 21.067 9.737-.982 24.602-13.603 28.963-4.814 5.57 11.225-2.7 29.638-14.045 34.878-11.078 5.112-22.553-9.56-34.382-12.53-5.03-1.262-10.515-1.224-15.554 0-5.146 1.25-9 6.08-14.162 7.218-14.06 3.095-24.812-9.4-39.003-4.547-46.997 16.04-38.343 25.723-81.9 19.045-3.2-.5-7.73 2.845-9.677.265l-6.66 3.154c-4.422-5.86-4.525-13.98-6.788-20.97l-3.088-3.215zM63 242.623c39.18-39.745 97.664-11.663 144.898-16.288 8.525-.835 17.92-11.92 24.8-6.8 5.464 4.08-8.937 10.464-14.396 14.55s-11.46 7.756-17.985 9.687c-26.45 7.826-51.558-19.618-79.338-10.228-10.184 3.442-16.378 14.28-25.93 19.218-4.773 2.468-10.596 3.072-15.926 2.422-4.755-.58-9.7-2.56-13.084-5.963-2.27-2.284-1.477-6.28-2.215-9.42"/></g></g></g></g><path d="M198.18 217.83l-.32.257c-17.907 14.306-40.552 22.84-65.404 22.84C73.28 240.926 24 192.558 24 133.045c0-25.84 9.043-49.555 24.12-68.12C61.5 142.27 121.66 203.443 198.18 217.83z" fill-opacity=".455" fill="#029487"/></g></g></svg>