<svg xmlns="http://www.w3.org/2000/svg" xmlns:xlink="http://www.w3.org/1999/xlink" width="768" height="531" xmlns:v="https://vecta.io/nano"><defs><linearGradient x1="49.3396754%" y1="28.2901185%" x2="37.3608276%" y2="74.5712352%" id="A"><stop stop-color="#b5e1db" offset="0%"/><stop stop-color="#e3ffea" offset="100%"/></linearGradient><ellipse id="B" cx="135.604" cy="136.038" rx="135.604" ry="136.038"/><path d="M225.637.88a181.65 181.65 0 0 0-28.505 14.758h0l-.957.608a3.51 3.51 0 0 1-1.007.436h0l-6.781 1.752c-6.344 1.638-11.736 5.809-14.919 11.537h0c-.433.779-.554 1.695-.337 2.559h0l4.694 18.779a3.43 3.43 0 0 1 .087.497h0c.174 1.741 1.14 12.008-.025 13.754h0c-1.02 1.53-.407 8.368-.122 11.03h0a3.5 3.5 0 0 1-.399 2.035h0l-3.237 6.01c-.445.829-.541 1.802-.263 2.702h0l3.591 11.644a3.51 3.51 0 0 1-.253 2.682h0l-2.145 4.046a3.51 3.51 0 0 1-3.103 1.867h0-19.011a3.51 3.51 0 0 0-3.479 3.032h0l-4.744 34.247a3.51 3.51 0 0 1-.688 1.651h0l-13.577 17.773c-.597.783-1.494 1.278-2.473 1.366h0l-4.947.45c-.344.032-.689.013-1.026-.058h0l-6.759-1.39c-1.244-.257-2.255-1.165-2.64-2.377h0l-2.042-6.412a3.51 3.51 0 0 0-3.347-2.448h0-5.575c-1.261 0-2.424.677-3.05 1.772h0l-6.371 11.152a3.55 3.55 0 0 1-.626.799h0l-20.827 19.865c-.106.101-.206.209-.299.323h0l-5.089 6.249c-7.467 9.167-13.466 19.445-17.701 30.486h0c-.462 1.205-.787 2.118-.898 2.563h0c-.112.446-.535 1.538-1.158 3.036h0c-5.924 14.265-14.027 27.524-23.928 39.379h0l-8.008 9.785h0c-.95 1.426 6.383 11.717 10.164 16.845h0a3.51 3.51 0 0 1-.827 4.966h0L1.514 315.585c-2.653 1.845-1.627 5.996 1.581 6.378h0c193.251 23.02 488.524 3.515 543.642-.458h0c3.202-.231 4.438-4.281 1.915-6.266h0l-21.627-17.019c-.255-.201-.538-.365-.838-.489h0l-24.215-9.938c-.101-.041-.2-.087-.297-.139h0l-39.551-20.722c-8.877-4.652-19.132-5.949-28.886-3.652h0l-13.779 3.243c-1.94.457-3.872-.792-4.253-2.749h0l-3.618-18.616a3.55 3.55 0 0 0-.551-1.318h0l-6.53-9.522a62.22 62.22 0 0 0-21.34-19.348h0c-18.388-10.114-50.137-27.372-53.526-27.822h0l-.829-.117h0c-7.216-1.078-14.157-3.54-20.512-7.125h0l-15.365-8.67c-.73-.412-1.289-1.07-1.576-1.858h0l-4.531-12.452c-.077-.211-.133-.43-.169-.654h0l-3.603-22.835c-1.354-8.582-.271-17.37 3.126-25.365h0l3.783-8.903c.918-2.16-.499-4.597-2.831-4.865h0a26.97 26.97 0 0 1-18.84-11.094h0l-8.79-12.277a3.51 3.51 0 0 1-.657-2.045h0V50.83c0-1.142-.554-2.212-1.486-2.871h0l-4.237-2.992c-.932-.658-1.487-1.729-1.487-2.871h0V26.699c0-.401-.069-.799-.203-1.178h0l-1.847-5.197A42.24 42.24 0 0 0 237.958 3h0-.001c-2.199-1.967-5.006-3-7.854-3h0c-1.505 0-3.022.289-4.466.88h0z" id="C"/></defs><g fill="none" fill-rule="evenodd"><path fill="#fff" d="M0 0h768v531H0z"/><path d="M102.934-276.699c6.263 71.348 13.62 137.227-37.935 197.63C20.201-13.701-5.578 64.559 47.664 155.713s53.24 183.668 0 277.543C-42.276 587.319-29.03 709.2 87.404 798.891s54.283 205.906-186.454 348.633h924v-1524H107.398s-8.011 59.39-4.463 99.777z" fill="url(#A)" transform="matrix(0 1 -1 0 748.47377 22.57377)"/><g transform="translate(170.125 279.988)"><g transform="matrix(.965926 -.258819 .258819 .965926 0 70.193802)"><ellipse cx="135.604" cy="136.038" rx="135.604" ry="136.038" fill="#02ccba" fill-rule="nonzero"/><mask id="D" fill="#fff"><use xlink:href="#B"/></mask><g mask="url(#D)"><g transform="translate(-22.601 -37.789)" fill-rule="nonzero"><path d="M49.701 40.787c22.048 22.736 46.334 35.031 79.178 31.334 15.335-1.72 26.728-10.509 42.825-5.889 68.196 19.566 14.947 18.38 73.335 22.733 9.103.678 18.432 1.763 27.39 0 8.296-1.632 16.808-15.381 23.329-9.982 9.471 7.84 15.562 26.217 8.151 36.04-12.158 16.114-40.528-3.912-53.496-6.461-19.311-3.797-37.53 15.225-55.115 7.634-16.669-7.195-31.837-30.26-53.953-24.352-55.144 14.731-17.197 24.409-86.003 32.051-13.955 1.551-47.572 14.063-42.108 1.1L0 119.261c112-265.98 17.826 8.081 45.635-74.156l4.064-4.319.001.001z" fill="#02a899"/><path d="M1.883 163.357c41.805 7.945 67.191-10.884 106.114-25.508 26.943-10.123 45.265 3.845 71.306 6.969 29.13 3.491 15.6-6.332 40.054-13.222 20.281-5.713 48.425 10.287 64.101 12.875 9.633 1.591 19.979-3.965 29.273-.967 3.503 1.13-4.621 5.935-7.728 7.915-5.211 3.32-10.673 8.121-16.833 7.738-10.17-.632-18.834-7.998-28.696-10.565-3.051-.795-6.504-.524-9.44.638-10.19 4.034-19.939 9.194-29.399 14.741-5.11 2.995-8.312 9.702-14.129 10.779-9.733 1.803-20.291.766-29.572-2.687-13.63-5.068-24.394-16.037-37.535-22.267-4.585-2.172-10.355-4.709-14.986-2.634-10.239 4.583-16.972 14.786-26.255 21.098-6.233 4.238-13.874 6.102-20.07 10.399-7.737 5.365-13.576 13.23-21.449 18.392-10.036 6.579-20.601 12.677-31.933 16.603-5.04 1.758-13.783 4.867-15.994 0-6.378-14.035-3.277-30.674-4.918-46.01l-1.912-4.288z" fill="#06decb"/><path d="M.004 50.195c30.741-.804 53.29.76 80.604-12.776 30.279-15.004 59.386-41.513 95.7-36.885 26.653 3.396 40.677 29.428 70.163 26.452 12.226-1.233 30.89-17.08 36.366-6.044 6.994 14.094-3.39 37.214-17.635 43.793-13.91 6.419-28.318-12.004-43.17-15.733-6.316-1.585-13.203-1.537-19.53 0-6.461 1.57-11.3 7.634-17.782 9.063-17.654 3.886-31.154-11.803-48.972-5.709-59.01 20.14-48.144 32.298-102.834 23.913-4.018-.628-9.706 3.572-12.15.333l-8.362 3.96c-5.552-7.358-5.682-17.553-8.523-26.33L0 50.195h.004zm54.619 65.501c49.195-49.904 122.627-14.644 181.935-20.451 10.704-1.048 22.5-14.967 31.139-8.538 6.861 5.123-11.221 13.139-18.076 18.269s-14.389 9.738-22.582 12.163c-33.211 9.826-64.736-24.632-99.617-12.842-12.787 4.322-20.564 17.93-32.558 24.13-5.993 3.099-13.304 3.857-19.997 3.041-5.97-.728-12.179-3.214-16.428-7.487-2.85-2.868-1.855-7.885-2.781-11.828" fill="#02a899" transform="translate(24.481 188.942)"/></g></g></g><path d="M248.875 273.009l-.402.323c-22.515 17.964-50.987 28.679-82.234 28.679-74.403 0-136.364-60.735-136.364-135.464 0-32.446 11.37-62.225 30.327-85.536 16.823 97.12 92.463 173.933 188.673 191.998z" fill-opacity=".455" fill="#029487" fill-rule="nonzero"/></g><g transform="translate(-71 219)"><mask id="E" fill="#fff"><use xlink:href="#C"/></mask><path fill="#c7f0ec" mask="url(#E)" d="M-51 376h655V-21H-51z"/><path d="M203.282-2.602l1.149 43.506 11.874 19.833s1.912 15.355 0 18.554-9.978 11.516-10.726 15.995-3.077 12.155 0 14.075 6.902 8.957 8.814 8.957 31.868-4.478 31.868-4.478l15.934-5.118v4.479l-8.924 7.676-19.757 4.479c-3.187.64-20.396 6.397-20.396 6.397s-4.324 12.797-3.437 14.716-2.799 4.478 0 7.037 10.448 8.958 11.085 11.516-2.55 11.516-2.55 11.516-4.461 9.597-5.099 16.635 8.285 16.636 8.285 16.636l14.705 10.877c7.603 5.757 12.56 5.117 14.543 10.236s5.17 7.038 11.544 13.436 31.868 4.478 35.692 3.199 12.747-8.957 17.209-3.199 6.374 9.168 6.374 12.901 3.824 6.292 0 9.492-7.649 3.199-8.286 8.957 5.736 12.156 5.736 12.156l20.395 13.435c5.1 3.199 12.868 1.92 11.533 8.318s-3.247 10.877-3.247 10.877l-1.275 7.677s-1.256 1.96-1.265 8.018l-.01 9.257L132.812 364 8.527 345.446-38 330.731l36.638-82.534L104.13 104.044 189.536-9l13.746 6.398z" fill="#aedcd3" mask="url(#E)"/></g><g fill="#fff"><path d="M731.269 470.637l-1.154-2.383a3.59 3.59 0 0 0-1.498-1.579l-2.918-1.609 2.835-1.471a3.59 3.59 0 0 0 1.6-1.668l1.135-2.431 1.136 2.431a3.59 3.59 0 0 0 1.6 1.668l2.835 1.471-2.919 1.609a3.59 3.59 0 0 0-1.498 1.579l-1.154 2.383zm-628-357l-.947-1.955c-.266-.548-.695-1.001-1.229-1.295l-2.394-1.32 2.326-1.207c.577-.299 1.038-.78 1.313-1.368l.931-1.995.932 1.995a2.94 2.94 0 0 0 1.313 1.368l2.326 1.207-2.395 1.32c-.534.294-.963.747-1.229 1.295l-.947 1.955zm371.5 73l-.843-1.741c-.237-.488-.619-.892-1.095-1.154l-2.133-1.176 2.072-1.075a2.62 2.62 0 0 0 1.169-1.219l.829-1.777.83 1.777a2.62 2.62 0 0 0 1.169 1.219l2.072 1.075-2.133 1.176c-.475.262-.858.665-1.095 1.154l-.843 1.741zm-418.5 101l-1.361-2.811c-.382-.788-.999-1.439-1.767-1.862l-3.442-1.898 3.344-1.735a4.23 4.23 0 0 0 1.887-1.967l1.339-2.868 1.339 2.868a4.23 4.23 0 0 0 1.887 1.967l3.344 1.735-3.443 1.898a4.24 4.24 0 0 0-1.767 1.862l-1.362 2.811z"/><circle cx="556.306" cy="479.832" r="3.342"/><circle cx="288.806" cy="157.332" r="1.842"/><circle cx="715.306" cy="104.832" r="3.342"/><circle cx="327.306" cy="268.832" r="3.342"/></g></g></svg>