<?xml version="1.0" encoding="UTF-8"?>
<svg width="563px" height="462px" viewBox="0 0 563 462" version="1.1" xmlns="http://www.w3.org/2000/svg" xmlns:xlink="http://www.w3.org/1999/xlink">
    <!-- Generator: Sketch 59.1 (86144) - https://sketch.com -->
    <title>Group 29</title>
    <desc>Created with Sketch.</desc>
    <defs>
        <linearGradient x1="61.7222466%" y1="52.5439693%" x2="35.3271569%" y2="47.8242902%" id="linearGradient-1">
            <stop stop-color="#8CC63F" offset="29%"></stop>
            <stop stop-color="#75B017" offset="76%"></stop>
            <stop stop-color="#6FAA0D" offset="87%"></stop>
            <stop stop-color="#538700" offset="97%"></stop>
        </linearGradient>
        <linearGradient x1="-3936.18304%" y1="-1107.67217%" x2="-3857.75646%" y2="-1107.67217%" id="linearGradient-2">
            <stop stop-color="#8CC63F" offset="29%"></stop>
            <stop stop-color="#75B017" offset="76%"></stop>
            <stop stop-color="#6FAA0D" offset="87%"></stop>
            <stop stop-color="#538700" offset="97%"></stop>
        </linearGradient>
        <linearGradient x1="60.3806124%" y1="52.7295719%" x2="38.7218861%" y2="48.4316927%" id="linearGradient-3">
            <stop stop-color="#538700" offset="3%"></stop>
            <stop stop-color="#6FAA0D" offset="13%"></stop>
            <stop stop-color="#75B017" offset="24%"></stop>
            <stop stop-color="#8CC63F" offset="71%"></stop>
        </linearGradient>
        <linearGradient x1="-1543.98514%" y1="-1020.74372%" x2="-1464.94698%" y2="-1020.74372%" id="linearGradient-4">
            <stop stop-color="#538700" offset="3%"></stop>
            <stop stop-color="#6FAA0D" offset="13%"></stop>
            <stop stop-color="#75B017" offset="24%"></stop>
            <stop stop-color="#8CC63F" offset="71%"></stop>
        </linearGradient>
        <radialGradient cx="50%" cy="46.5337915%" fx="50%" fy="46.5337915%" r="53.5373683%" gradientTransform="translate(0.500000,0.465338),scale(0.867925,1.000000),rotate(180.000000),translate(-0.500000,-0.465338)" id="radialGradient-5">
            <stop stop-color="#8CC63F" offset="0%"></stop>
            <stop stop-color="#77B21C" offset="100%"></stop>
        </radialGradient>
        <radialGradient cx="50%" cy="46.4783505%" fx="50%" fy="46.4783505%" r="78.5005767%" gradientTransform="translate(0.500000,0.464784),scale(0.500000,1.000000),rotate(180.000000),translate(-0.500000,-0.464784)" id="radialGradient-6">
            <stop stop-color="#8CC63F" offset="0%"></stop>
            <stop stop-color="#77B21C" offset="100%"></stop>
        </radialGradient>
        <radialGradient cx="50.148902%" cy="49.8572465%" fx="50.148902%" fy="49.8572465%" r="49.9641175%" id="radialGradient-7">
            <stop stop-color="#8CC63F" offset="0%"></stop>
            <stop stop-color="#77B21C" offset="100%"></stop>
        </radialGradient>
        <linearGradient x1="99.9985497%" y1="49.9878577%" x2="-0.0018957665%" y2="49.9878577%" id="linearGradient-8">
            <stop stop-color="#000000" offset="0%"></stop>
            <stop stop-color="#292929" offset="50%"></stop>
            <stop stop-color="#000000" offset="100%"></stop>
        </linearGradient>
        <linearGradient x1="99.7632884%" y1="50.0245978%" x2="-0.0107966528%" y2="50.0245978%" id="linearGradient-9">
            <stop stop-color="#505050" offset="20%"></stop>
            <stop stop-color="#000000" offset="50%"></stop>
            <stop stop-color="#464646" offset="85%"></stop>
        </linearGradient>
        <radialGradient cx="50.0142972%" cy="50%" fx="50.0142972%" fy="50%" r="69.5342515%" gradientTransform="translate(0.500143,0.500000),scale(1.000000,0.571429),rotate(180.000000),translate(-0.500143,-0.500000)" id="radialGradient-10">
            <stop stop-color="#8CC63F" offset="0%"></stop>
            <stop stop-color="#77B21C" offset="100%"></stop>
        </radialGradient>
        <radialGradient cx="49.8489426%" cy="50.1465946%" fx="49.8489426%" fy="50.1465946%" r="65.3172205%" gradientTransform="translate(0.498489,0.501466),scale(1.000000,0.666667),rotate(180.000000),translate(-0.498489,-0.501466)" id="radialGradient-11">
            <stop stop-color="#8CC63F" offset="0%"></stop>
            <stop stop-color="#77B21C" offset="100%"></stop>
        </radialGradient>
        <radialGradient cx="50.0090686%" cy="50.1651661%" fx="50.0090686%" fy="50.1651661%" r="83.3508288%" gradientTransform="translate(0.500091,0.501652),scale(1.000000,0.473684),rotate(180.000000),translate(-0.500091,-0.501652)" id="radialGradient-12">
            <stop stop-color="#8CC63F" offset="0%"></stop>
            <stop stop-color="#77B21C" offset="100%"></stop>
        </radialGradient>
        <radialGradient cx="61.6937468%" cy="59.1288699%" fx="61.6937468%" fy="59.1288699%" r="64.4824162%" id="radialGradient-13">
            <stop stop-color="#8CC63F" offset="62%"></stop>
            <stop stop-color="#75B017" offset="93%"></stop>
            <stop stop-color="#6FAA0D" offset="100%"></stop>
        </radialGradient>
        <radialGradient cx="50%" cy="50%" fx="50%" fy="50%" r="50%" id="radialGradient-14">
            <stop stop-color="#2C5C84" offset="8%"></stop>
            <stop stop-color="#2F5F87" offset="24%"></stop>
            <stop stop-color="#396A8F" offset="38%"></stop>
            <stop stop-color="#4A7C9C" offset="52%"></stop>
            <stop stop-color="#6196AF" offset="65%"></stop>
            <stop stop-color="#80B6C8" offset="77%"></stop>
            <stop stop-color="#A4DEE6" offset="89%"></stop>
            <stop stop-color="#C3FFFF" offset="98%"></stop>
        </radialGradient>
        <linearGradient x1="35.6995071%" y1="88.3400189%" x2="53.7033997%" y2="22.8795573%" id="linearGradient-15">
            <stop stop-color="#02F8A0" offset="9%"></stop>
            <stop stop-color="#0BCD8C" offset="18%"></stop>
            <stop stop-color="#1B846A" offset="34%"></stop>
            <stop stop-color="#245654" offset="45%"></stop>
            <stop stop-color="#28454C" offset="51%"></stop>
        </linearGradient>
        <path d="M345.1341,83.5888787 C343.254074,82.3686538 342.503182,80.0043473 343.339219,77.9374014 C344.175257,75.8704555 346.366325,74.6741958 348.576599,75.0779436 C349.389705,75.2557996 431.090982,90.389257 502.934674,116.978736 C504.508816,117.557154 505.651919,118.923659 505.933388,120.563503 C506.214857,122.203346 505.59193,123.867397 504.299257,124.928823 C503.006584,125.990249 501.240554,126.287794 499.666412,125.709376 L499.666412,125.709376 C428.598866,99.4599156 347.647335,84.4153862 346.850069,84.2636854 C346.241129,84.1776738 345.659825,83.9558887 345.149939,83.615034 L345.1341,83.5888787 Z" id="path-16"></path>
    </defs>
    <g id="Page-1" stroke="none" stroke-width="1" fill="none" fill-rule="evenodd">
        <g id="Resume-Maker" transform="translate(-104.000000, -965.000000)">
            <g id="Group-3" transform="translate(-40.000000, 791.000000)">
                <g id="Group-29" transform="translate(144.000000, 174.000000)">
                    <ellipse id="Oval" fill="#F4F8FE" fill-rule="nonzero" cx="202" cy="446" rx="202" ry="16"></ellipse>
                    <path d="M358,212.378617 L364.078959,212.988451 C365.294751,213.09009 367.836862,212.531076 368.057915,210.904852 L369.992129,195.455726 C370.102655,194.642614 369.052653,192.863931 366.62107,192.609834 L360.54211,192 L358,212.378617 Z" id="Path" fill="url(#linearGradient-1)" fill-rule="nonzero"></path>
                    <path d="M348,214.172292 L354.790486,214.988475 C355.639297,215.0973 357.44302,214.444353 357.655222,212.648749 L359.989452,191.700033 C360.095553,190.829437 359.405895,188.97942 357.708273,188.761771 L350.917787,188 L348,214.172292 Z" id="Path" fill="url(#linearGradient-2)" fill-rule="nonzero"></path>
                    <path d="M209.260781,193 L203.268741,192.361907 C202.070333,192.255558 199.787651,191.085721 200.015919,189.277792 L202.070333,172.315156 C202.184467,171.411191 203.611143,169.762785 206.00796,170.028657 L212,170.66675 L209.260781,193 Z" id="Path" fill="url(#linearGradient-3)" fill-rule="nonzero"></path>
                    <path d="M219.142892,197 L212.30624,196.191285 C211.438904,196.083457 209.85729,195.005171 210.01035,193.172084 L212.30624,171.444617 C212.40828,170.528074 213.428676,168.802816 215.163348,169.018473 L222,169.827188 L219.142892,197 Z" id="Path" fill="url(#linearGradient-4)" fill-rule="nonzero"></path>
                    <path d="M71.0525624,353 L311,353 L311,294.605387 C311.028509,275.738637 296.004194,260.339826 277.254893,260.019191 L71,256 L71.0525624,352.989423 L71.0525624,353 Z" id="Path" fill="#8DC63F"></path>
                    <path d="M239.986762,279 L205.013238,279 C200.03906,279.0087 196.008912,282.943297 196,287.799542 L196,316.200458 C196.008912,321.056703 200.03906,324.9913 205.013238,325 L239.986762,325 C244.96094,324.9913 248.991088,321.056703 249,316.200458 L249,287.789003 C248.985154,282.936875 244.956738,279.008679 239.986762,279 Z" id="Path" fill="url(#radialGradient-5)" fill-rule="nonzero"></path>
                    <path d="M238.466208,291 L204.532708,291 C204.238501,291 204,291.238781 204,291.533333 L204,294.466667 C204,294.761219 204.238501,295 204.532708,295 L238.466208,295 C238.760415,295 238.998916,294.761219 238.998916,294.466667 L238.998916,291.533333 C239.007669,291.400306 238.963139,291.269266 238.87517,291.169184 C238.787201,291.069102 238.663039,291.008221 238.530133,291 L238.466208,291 Z" id="Path" fill="#333333" fill-rule="nonzero"></path>
                    <path d="M238.466208,300 L204.532708,300 C204.238501,300 204,300.238781 204,300.533333 L204,303.466667 C204,303.761219 204.238501,304 204.532708,304 L238.466208,304 C238.760415,304 238.998916,303.761219 238.998916,303.466667 L238.998916,300.533333 C239.007669,300.400306 238.963139,300.269266 238.87517,300.169184 C238.787201,300.069102 238.663039,300.008221 238.530133,300 L238.466208,300 Z" id="Path" fill="#333333" fill-rule="nonzero"></path>
                    <path d="M238.459392,308 L204.532603,308 C204.238454,308 204,308.238781 204,308.533333 L204,311.466667 C204,311.761219 204.238454,312 204.532603,312 L238.459392,312 C238.753541,312 238.991995,311.761219 238.991995,311.466667 L238.991995,308.533333 C239.050581,308.213333 238.778954,308 238.459392,308 Z" id="Path" fill="#333333" fill-rule="nonzero"></path>
                    <path d="M171.139562,279 L96.8604383,279 C91.9705867,279.0087 88.0087606,282.943297 88,287.799542 L88,316.200458 C88.0087606,321.056703 91.9705867,324.9913 96.8604383,325 L171.139562,325 C176.029413,324.9913 179.991239,321.056703 180,316.200458 L180,287.789003 C179.985406,282.936875 176.025283,279.008679 171.139562,279 Z" id="Path" fill="url(#radialGradient-6)" fill-rule="nonzero"></path>
                    <path d="M167.264596,314.000179 L141.73558,314.000179 C141.544705,313.995889 141.359974,314.068778 141.222049,314.202802 C141.084124,314.336826 141.00431,314.520999 141,314.714782 L141,317.253221 C140.995951,317.447002 141.067747,317.634545 141.199761,317.77457 C141.331775,317.914595 141.513186,317.995624 141.704063,317.999821 L167.264596,317.999821 C167.455471,318.004111 167.640202,317.931222 167.778127,317.797198 C167.916052,317.663174 167.995866,317.479001 168,317.285218 L168,314.746779 C167.991638,314.338011 167.667234,314.008668 167.264596,314.000179 L167.264596,314.000179 Z" id="Path" fill="#333333" fill-rule="nonzero"></path>
                    <circle id="Oval" fill="#333333" fill-rule="nonzero" cx="119" cy="315" r="4"></circle>
                    <circle id="Oval" fill="#333333" fill-rule="nonzero" cx="109" cy="315" r="4"></circle>
                    <path d="M168.297273,288 L164.702727,288 C164.252312,287.996686 163.819189,288.173261 163.499507,288.490575 C163.179825,288.807889 163,289.239687 163,289.690114 L163,293.297273 C162.996686,293.747688 163.173261,294.180811 163.490575,294.500493 C163.807889,294.820175 164.239687,295 164.690114,295 L168.297273,295 C168.747688,295.003314 169.180811,294.826739 169.500493,294.509425 C169.820175,294.192111 170,293.760313 170,293.309886 L170,289.702727 C170.003314,289.252312 169.826739,288.819189 169.509425,288.499507 C169.192111,288.179825 168.760313,288 168.309886,288 L168.297273,288 Z" id="Path" fill="#0AD6E0" fill-rule="nonzero"></path>
                    <path d="M156.297309,288 L152.702738,288 C152.25232,287.996686 151.819195,288.173261 151.499511,288.490575 C151.179826,288.807889 151,289.239687 151,289.690114 L151,293.297273 C150.996686,293.747688 151.173262,294.180811 151.490578,294.500493 C151.807895,294.820175 152.239695,295 152.690126,295 L156.297309,295 C156.747727,295.003314 157.180852,294.826739 157.500537,294.509425 C157.820221,294.192111 158,293.760313 158,293.309886 L158,289.702727 C157.964437,288.777494 157.222548,288.03561 156.297309,288 L156.297309,288 Z" id="Path" fill="#FFFFFF" fill-rule="nonzero"></path>
                    <path d="M143.290991,288 L139.702703,288 C139.252282,287.99668 138.819153,288.173574 138.499467,288.491461 C138.17978,288.809347 138,289.241925 138,289.693165 L138,293.306835 C138,293.758075 138.17978,294.190653 138.499467,294.508539 C138.819153,294.826426 139.252282,295.00332 139.702703,295 L143.297297,295 C143.747718,295.00332 144.180847,294.826426 144.500533,294.508539 C144.82022,294.190653 145,293.758075 145,293.306835 L145,289.693165 C145,289.241925 144.82022,288.809347 144.500533,288.491461 C144.180847,288.173574 143.747718,287.99668 143.297297,288 L143.290991,288 Z" id="Path" fill="#FFFFFF" fill-rule="nonzero"></path>
                    <path d="M133.290991,288 L129.702703,288 C129.252282,287.99668 128.819153,288.173574 128.499467,288.491461 C128.17978,288.809347 128,289.241925 128,289.693165 L128,293.306835 C128,293.758075 128.17978,294.190653 128.499467,294.508539 C128.819153,294.826426 129.252282,295.00332 129.702703,295 L133.297297,295 C133.747718,295.00332 134.180847,294.826426 134.500533,294.508539 C134.82022,294.190653 135,293.758075 135,293.306835 L135,289.693165 C134.954865,288.770181 134.21277,288.034986 133.290991,288 L133.290991,288 Z" id="Path" fill="#FFFFFF" fill-rule="nonzero"></path>
                    <path d="M168.297273,299 L164.702727,299 C164.252312,298.996686 163.819189,299.173261 163.499507,299.490575 C163.179825,299.807889 163,300.239687 163,300.690114 L163,304.297273 C162.996686,304.747688 163.173261,305.180811 163.490575,305.500493 C163.807889,305.820175 164.239687,306 164.690114,306 L168.297273,306 C168.747688,306.003314 169.180811,305.826739 169.500493,305.509425 C169.820175,305.192111 170,304.760313 170,304.309886 L170,300.702727 C170.003314,300.252312 169.826739,299.819189 169.509425,299.499507 C169.192111,299.179825 168.760313,299 168.309886,299 L168.297273,299 Z" id="Path" fill="#365496" fill-rule="nonzero"></path>
                    <path d="M156.297309,299 L152.702738,299 C152.25232,298.996686 151.819195,299.173261 151.499511,299.490575 C151.179826,299.807889 151,300.239687 151,300.690114 L151,304.297273 C150.996686,304.747688 151.173262,305.180811 151.490578,305.500493 C151.807895,305.820175 152.239695,306 152.690126,306 L156.297309,306 C156.747727,306.003314 157.180852,305.826739 157.500537,305.509425 C157.820221,305.192111 158,304.760313 158,304.309886 L158,300.702727 C157.964437,299.777494 157.222548,299.03561 156.297309,299 L156.297309,299 Z" id="Path" fill="#0AD6E0" fill-rule="nonzero"></path>
                    <path d="M143.290967,299 L139.702727,299 C139.252312,298.996686 138.819189,299.173261 138.499507,299.490575 C138.179825,299.807889 138,300.239687 138,300.690114 L138,304.297273 C137.996686,304.747688 138.173261,305.180811 138.490575,305.500493 C138.807889,305.820175 139.239687,306 139.690114,306 L143.297273,306 C143.747688,306.003314 144.180811,305.826739 144.500493,305.509425 C144.820175,305.192111 145,304.760313 145,304.309886 L145,300.702727 C145.003314,300.252312 144.826739,299.819189 144.509425,299.499507 C144.192111,299.179825 143.760313,299 143.309886,299 L143.290967,299 Z" id="Path" fill="#FFFFFF" fill-rule="nonzero"></path>
                    <path d="M133.291002,299 L129.702738,299 C129.25232,298.996686 128.819195,299.173261 128.499511,299.490575 C128.179826,299.807889 128,300.239687 128,300.690114 L128,304.297273 C127.996686,304.747688 128.173262,305.180811 128.490578,305.500493 C128.807895,305.820175 129.239695,306 129.690126,306 L133.297309,306 C133.747727,306.003314 134.180852,305.826739 134.500537,305.509425 C134.820221,305.192111 135,304.760313 135,304.309886 L135,300.702727 C134.961225,299.776476 134.217397,299.035398 133.291002,299 L133.291002,299 Z" id="Path" fill="#FFFFFF" fill-rule="nonzero"></path>
                    <path d="M120.297273,288 L116.702727,288 C116.252312,287.996686 115.819189,288.173261 115.499507,288.490575 C115.179825,288.807889 115,289.239687 115,289.690114 L115,293.297273 C114.996686,293.747688 115.173261,294.180811 115.490575,294.500493 C115.807889,294.820175 116.239687,295 116.690114,295 L120.297273,295 C120.747688,295.003314 121.180811,294.826739 121.500493,294.509425 C121.820175,294.192111 122,293.760313 122,293.309886 L122,289.702727 C122.003314,289.252312 121.826739,288.819189 121.509425,288.499507 C121.192111,288.179825 120.760313,288 120.309886,288 L120.297273,288 Z" id="Path" fill="#FFFFFF" fill-rule="nonzero"></path>
                    <path d="M120.297273,299 L116.702727,299 C116.252312,298.996686 115.819189,299.173261 115.499507,299.490575 C115.179825,299.807889 115,300.239687 115,300.690114 L115,304.297273 C114.996686,304.747688 115.173261,305.180811 115.490575,305.500493 C115.807889,305.820175 116.239687,306 116.690114,306 L120.297273,306 C120.747688,306.003314 121.180811,305.826739 121.500493,305.509425 C121.820175,305.192111 122,304.760313 122,304.309886 L122,300.702727 C122.003314,300.252312 121.826739,299.819189 121.509425,299.499507 C121.192111,299.179825 120.760313,299 120.309886,299 L120.297273,299 Z" id="Path" fill="#FFFFFF" fill-rule="nonzero"></path>
                    <path d="M110.297309,288 L106.702738,288 C106.25232,287.996686 105.819195,288.173261 105.499511,288.490575 C105.179826,288.807889 105,289.239687 105,289.690114 L105,293.297273 C104.996686,293.747688 105.173262,294.180811 105.490578,294.500493 C105.807895,294.820175 106.239695,295 106.690126,295 L110.297309,295 C110.747727,295.003314 111.180852,294.826739 111.500537,294.509425 C111.820221,294.192111 112,293.760313 112,293.309886 L112,289.702727 C111.964437,288.777494 111.222548,288.03561 110.297309,288 L110.297309,288 Z" id="Path" fill="#FFFFFF" fill-rule="nonzero"></path>
                    <path d="M110.297309,299 L106.702738,299 C106.25232,298.996686 105.819195,299.173261 105.499511,299.490575 C105.179826,299.807889 105,300.239687 105,300.690114 L105,304.297273 C104.996686,304.747688 105.173262,305.180811 105.490578,305.500493 C105.807895,305.820175 106.239695,306 106.690126,306 L110.297309,306 C110.747727,306.003314 111.180852,305.826739 111.500537,305.509425 C111.820221,305.192111 112,304.760313 112,304.309886 L112,300.702727 C111.964437,299.777494 111.222548,299.03561 110.297309,299 L110.297309,299 Z" id="Path" fill="#FFFFFF" fill-rule="nonzero"></path>
                    <path d="M71.0535549,267 L129,267 L91.9935365,220.407166 C91.2859774,219.522654 90.1998592,219.003782 89.0480148,219 L73.0886427,219 C71.9363385,219.002864 71.0029433,219.911203 71,221.032573 L71.0535549,267 Z" id="Path" fill="#8DC63F"></path>
                    <circle id="Oval" fill="#333333" fill-rule="nonzero" cx="84.5" cy="251.5" r="3.5"></circle>
                    <circle id="Oval" fill="#FFFFFF" fill-rule="nonzero" cx="84.5" cy="240.5" r="3.5"></circle>
                    <circle id="Oval" fill="#FFFFFF" fill-rule="nonzero" cx="84.5" cy="229.5" r="3.5"></circle>
                    <polygon id="Path" fill="#333333" fill-rule="nonzero" points="143 354.936378 87 334 83 344.063622 139 365"></polygon>
                    <polygon id="Path" fill="#333333" fill-rule="nonzero" points="81 349 67 349 67 379 81 379"></polygon>
                    <polygon id="Path" fill="#333333" fill-rule="nonzero" points="247.806566 321 133 354.450292 136.193434 365 251 331.549708"></polygon>
                    <polygon id="Path" fill="#333333" fill-rule="nonzero" points="298 336.848485 247.526316 325 245 336.151515 295.473684 348"></polygon>
                    <polygon id="Path" fill="#333333" fill-rule="nonzero" points="182 399.974659 143.554939 354 135 361.025341 173.445061 407"></polygon>
                    <circle id="Oval" fill="#666666" fill-rule="nonzero" cx="138" cy="360" r="14"></circle>
                    <circle id="Oval" fill="#666666" fill-rule="nonzero" cx="247" cy="328" r="14"></circle>
                    <polygon id="Path" fill="#333333" fill-rule="nonzero" points="318 347 304 347 304 378 318 378"></polygon>
                    <polygon id="Path" fill="#000000" fill-rule="nonzero" points="55 362 90 362 90 351 55 351"></polygon>
                    <path d="M99.1124588,355 L41.8875261,355 C40.2987458,354.986229 39.0142795,353.744941 39,352.209568 L39,344.193417 C38.9851794,336.999945 44.5707633,330.946517 51.9675143,330.139785 L98.7974592,325.015537 C100.370865,324.856523 101.789841,325.93556 102,327.450823 L102,352.158833 C102.008737,353.71172 100.719261,354.980507 99.1124588,355 L99.1124588,355 Z" id="Path" fill="#000000" fill-rule="nonzero"></path>
                    <polygon id="Path" fill="#000000" fill-rule="nonzero" points="328 351 293 351 293 362 328 362"></polygon>
                    <path d="M282.838777,355 L340.110131,355 C341.700201,354.986229 342.985709,353.744941 343,352.209568 L343,344.193417 C343.014833,336.999945 337.424718,330.946517 330.021966,330.139785 L283.206575,325.015537 C281.631892,324.856523 280.211765,325.93556 280.00148,327.450823 L280.00148,352.158833 C279.951304,353.676783 281.182818,354.947632 282.754709,355 L282.838777,355 Z" id="Path" fill="#000000" fill-rule="nonzero"></path>
                    <circle id="Oval" fill="#B3B3B3" fill-rule="nonzero" cx="307.5" cy="406.5" r="11.5"></circle>
                    <path d="M339,387.289043 C340.052641,386.716601 341.416353,387.020473 342.057942,387.970435 C342.158041,388.117455 342.235681,388.276152 342.28873,388.442169 L346.904492,402.384502 C347.075179,402.895374 347.015446,403.446922 346.738438,403.917779 C346.461429,404.388637 345.989842,404.740222 345.427448,404.89517 L345.427448,404.89517 C345.242755,404.958624 345.047829,404.99404 344.850478,405 C344.619379,398.737314 342.612122,392.634941 339.023079,387.283802 L339,387.289043 Z" id="Path" fill="#000000" fill-rule="nonzero"></path>
                    <path d="M278,423.711041 C276.947667,424.283316 275.584354,423.979533 274.942953,423.029847 C274.842884,422.88287 274.765266,422.72422 274.712233,422.558251 L270.097823,408.619976 C269.74268,407.5646 270.384332,406.445416 271.539826,406.104799 C271.724465,406.041364 271.919335,406.005958 272.116627,406 C272.393461,412.261289 274.417996,418.355857 278,423.711041 Z" id="Path" fill="#000000" fill-rule="nonzero"></path>
                    <path d="M305.233263,369.031227 L320.156853,370.51354 C320.699883,370.564145 321.197999,370.804198 321.541551,371.180857 C321.885103,371.557515 322.04593,372.039903 321.988629,372.521835 L321.988629,372.521835 C321.977213,372.684811 321.940966,372.845663 321.880877,373 C315.879365,370.954191 309.386059,370.312025 303.024356,371.135155 C302.850382,370.130337 303.627036,369.190568 304.759156,369.036008 L304.802257,369.036008 C304.940833,368.987997 305.094686,368.987997 305.233263,369.036008 L305.233263,369.031227 Z" id="Path" fill="#000000" fill-rule="nonzero"></path>
                    <path d="M310.712465,443.95314 L295.843104,442.489014 C295.300086,442.437363 294.801982,442.192352 294.458438,441.807913 C294.114894,441.423475 293.954071,440.931123 294.011371,440.439238 L294.011371,440.439238 C294.022838,440.288768 294.059158,440.140708 294.11912,440 C300.120489,442.088065 306.613641,442.743494 312.975193,441.903364 C313.058914,442.382944 312.928832,442.873006 312.613582,443.26568 C312.298332,443.658354 311.823753,443.921452 311.294309,443.997063 L311.25121,443.997063 C311.070214,444.006874 310.888618,443.992069 310.712465,443.95314 Z" id="Path" fill="#000000" fill-rule="nonzero"></path>
                    <path d="M275.13479,391 C274.191346,390.5553 273.753077,389.416553 274.141172,388.418299 C274.195622,388.264249 274.280202,388.1236 274.389576,388.005227 L282.98437,376.749013 C283.635631,375.895338 284.828547,375.749885 285.652234,376.423719 L285.652234,376.423719 C285.791631,376.517043 285.910206,376.64028 286,376.785157 C281.258329,380.466644 277.510836,385.357399 275.119885,390.98451 L275.13479,391 Z" id="Path" fill="#000000" fill-rule="nonzero"></path>
                    <path d="M339.890347,421 C340.843826,421.455042 341.263452,422.629623 340.827894,423.624301 C340.773813,423.777823 340.689805,423.917989 340.581172,424.035956 L331.995216,435.253556 C331.348364,436.104303 330.163523,436.249257 329.345412,435.577735 L329.345412,435.577735 C329.206959,435.48473 329.089186,435.361916 329,435.217536 C333.756235,431.551566 337.514684,426.656828 339.905151,421.015437 L339.890347,421 Z" id="Path" fill="#000000" fill-rule="nonzero"></path>
                    <path d="M295.70045,424.488532 C297.048189,425.416264 298.489585,426.194398 300,426.809633 L294.664414,441 C292.068853,439.978922 289.599999,438.651023 287.308559,437.043578 C283.127918,434.15137 279.611277,430.37225 277,425.965596 L289.691441,418 C291.218474,420.573451 293.267073,422.785529 295.70045,424.488532 L295.70045,424.488532 Z" id="Path" fill="#000000" fill-rule="nonzero"></path>
                    <path d="M320.820225,422 L330,434.157895 C325.076094,437.774545 319.316881,440.125908 313.241573,441 L311,426 C314.556933,425.482521 317.929762,424.108691 320.820225,422 L320.820225,422 Z" id="Path" fill="#000000" fill-rule="nonzero"></path>
                    <path d="M328.692143,404.522876 L342.975818,404 C343.170846,409.49351 342.184172,414.962504 340.089222,420 L327,413.934641 C328.248031,410.976686 328.827204,407.755302 328.692143,404.522876 L328.692143,404.522876 Z" id="Path" fill="#000000" fill-rule="nonzero"></path>
                    <path d="M320.289888,388.519045 C318.945178,387.590888 317.50702,386.812397 316,386.196879 L321.375281,372 C323.965009,373.021547 326.428315,374.350055 328.714607,375.958238 C332.885853,378.851773 336.394591,382.632627 339,387.041303 L326.337079,395 C324.792963,392.424343 322.731987,390.211936 320.289888,388.50849 L320.289888,388.519045 Z" id="Path" fill="#000000" fill-rule="nonzero"></path>
                    <path d="M288,397.117647 C286.744754,400.054719 286.165134,403.261013 286.308034,406.477124 L272.02585,407 C271.821938,401.50051 272.826606,396.02559 274.961909,391 L288,397.117647 Z" id="Path" fill="#000000" fill-rule="nonzero"></path>
                    <path d="M295.179775,390 L286,377.842105 C290.923906,374.225455 296.683119,371.874092 302.758427,371 L305,386 C301.443067,386.517479 298.070238,387.891309 295.179775,390 L295.179775,390 Z" id="Path" fill="#000000" fill-rule="nonzero"></path>
                    <path d="M326,394.832853 L338.708934,387 C341.920064,392.287 343.740312,398.300953 344,404.481268 L329.112392,405 C328.914794,401.408697 327.846627,397.919351 326,394.832853 L326,394.832853 Z" id="Path" fill="#000000" fill-rule="nonzero"></path>
                    <path d="M289,416.167147 L276.275862,424 C273.073959,418.713 271.258942,412.699047 271,406.518732 L285.844828,406 C286.041841,409.598603 287.125942,413.091985 289,416.167147 Z" id="Path" fill="#000000" fill-rule="nonzero"></path>
                    <path d="M305.28,383.832789 L303,369.36952 C309.410109,368.495923 315.952822,369.177461 322,371.348704 L316.408571,385 C312.865798,383.731741 309.035329,383.329985 305.28,383.832789 L305.28,383.832789 Z" id="Path" fill="#000000" fill-rule="nonzero"></path>
                    <path d="M310.72,427.167211 L313,441.63048 C306.589891,442.504077 300.047178,441.822539 294,439.651296 L299.591429,426 C303.133513,427.270903 306.964716,427.672736 310.72,427.167211 L310.72,427.167211 Z" id="Path" fill="#000000" fill-rule="nonzero"></path>
                    <path d="M290.017857,394.528484 C289.271382,395.625354 288.625898,396.787254 288.089286,398 L274,391.74059 C276.593497,385.899479 280.65247,380.822853 285.785714,377 L295,389.337233 C293.062234,390.776276 291.378473,392.527098 290.017857,394.517803 L290.017857,394.528484 Z" id="Path" fill="#000000" fill-rule="nonzero"></path>
                    <path d="M324.978056,417.482143 C325.724721,416.381916 326.37037,415.216458 326.907119,414 L341,420.214286 C338.405841,426.073278 334.345832,431.165444 329.211278,435 L320,422.625 C321.922842,421.185105 323.604904,419.449225 324.983414,417.482143 L324.978056,417.482143 Z" id="Path" fill="#000000" fill-rule="nonzero"></path>
                    <line x1="307" y1="406" x2="334" y2="411" id="Path" fill="#B3B3B3" fill-rule="nonzero"></line>
                    <polygon id="Path" fill="#B3B3B3" fill-rule="nonzero" points="307 406.703422 332.237192 419 335 405"></polygon>
                    <line x1="281" y1="402" x2="308" y2="407" id="Path" fill="#B3B3B3" fill-rule="nonzero"></line>
                    <polygon id="Path" fill="#B3B3B3" fill-rule="nonzero" points="279 408 307 406.296578 281.762808 394"></polygon>
                    <line x1="307" y1="406" x2="322" y2="385" id="Path" fill="#B3B3B3" fill-rule="nonzero"></line>
                    <polygon id="Path" fill="#B3B3B3" fill-rule="nonzero" points="307 406 328 387.203219 316.368421 379"></polygon>
                    <line x1="293" y1="428" x2="308" y2="407" id="Path" fill="#B3B3B3" fill-rule="nonzero"></line>
                    <polygon id="Path" fill="#B3B3B3" fill-rule="nonzero" points="299.631579 434 309 407 288 425.742455"></polygon>
                    <line x1="308" y1="407" x2="297" y2="382" id="Path" fill="#B3B3B3" fill-rule="nonzero"></line>
                    <polygon id="Path" fill="#B3B3B3" fill-rule="nonzero" points="309 407 304.582822 379 291 384.739464"></polygon>
                    <line x1="318" y1="431" x2="307" y2="406" id="Path" fill="#B3B3B3" fill-rule="nonzero"></line>
                    <polygon id="Path" fill="#B3B3B3" fill-rule="nonzero" points="325 428.260536 307 406 311.417178 434"></polygon>
                    <circle id="Oval" fill="#B3B3B3" fill-rule="nonzero" cx="177.5" cy="406.5" r="11.5"></circle>
                    <path d="M193,374.109653 C193.456608,373.156174 194.635233,372.736548 195.633335,373.172106 C195.787385,373.226187 195.928034,373.310195 196.046407,373.418828 L207.250987,382.004784 C208.104662,382.651636 208.250115,383.836477 207.576281,384.654588 L207.576281,384.654588 C207.482957,384.793041 207.35972,384.910814 207.214843,385 C203.537617,380.262327 198.648139,376.507192 193.01549,374.094849 L193,374.109653 Z" id="Path" fill="#000000" fill-rule="nonzero"></path>
                    <path d="M163,438.890347 C162.543392,439.843826 161.364767,440.263452 160.366665,439.827894 C160.212615,439.773813 160.071966,439.689805 159.953593,439.581172 L148.749013,430.995216 C147.895338,430.348364 147.749885,429.163523 148.423719,428.345412 L148.423719,428.345412 C148.517043,428.206959 148.64028,428.089186 148.785157,428 C152.462383,432.737673 157.351861,436.492808 162.98451,438.905151 L163,438.890347 Z" id="Path" fill="#000000" fill-rule="nonzero"></path>
                    <path d="M154.025223,375.625564 L166.275955,368.258045 C166.719558,367.987069 167.240436,367.926696 167.723529,368.090263 C168.206622,368.25383 168.612175,368.627876 168.850601,369.129775 L168.850601,369.157895 C168.944009,369.306 168.996041,369.482282 169,369.66406 C163.218544,371.238331 157.88804,374.45154 153.512285,379 C152.797451,378.139504 152.835348,376.787591 153.596945,375.97988 L153.596945,375.97988 C153.731118,375.849078 153.874333,375.730595 154.025223,375.625564 L154.025223,375.625564 Z" id="Path" fill="#000000" fill-rule="nonzero"></path>
                    <path d="M199.971175,436.354892 L187.724296,443.741293 C187.280652,444.012964 186.759726,444.073492 186.276588,443.909506 C185.793451,443.74552 185.387861,443.370515 185.149413,442.86733 L185.149413,442.86733 C185.055996,442.718845 185.00396,442.542111 185,442.359867 C190.781988,440.781561 196.112983,437.560117 200.48914,433 C201.203849,433.868036 201.163763,435.227018 200.399492,436.039138 L200.399492,436.039138 C200.266059,436.159798 200.122617,436.265544 199.971175,436.354892 Z" id="Path" fill="#000000" fill-rule="nonzero"></path>
                    <path d="M140.629831,413.96394 C139.450459,414.172298 138.309909,413.457034 138.060763,412.35282 C138.010503,412.177972 137.991214,411.996528 138.003673,411.81578 L139.145481,396.886069 C139.190636,396.344728 139.462688,395.842472 139.90172,395.489919 C140.340752,395.137367 140.910754,394.963434 141.486187,395.006429 L141.486187,395.006429 C141.662204,395.01786 141.835402,395.054065 142,395.113837 C139.807002,401.177934 139.334711,407.675486 140.629831,413.96394 L140.629831,413.96394 Z" id="Path" fill="#000000" fill-rule="nonzero"></path>
                    <path d="M213.407619,400.035243 C214.587717,399.826095 215.722084,400.56929 215.941333,401.695238 L215.941333,401.695238 C215.988076,401.852308 216.007104,402.015703 215.997637,402.178732 L214.871542,417.113316 C214.827009,417.654833 214.5587,418.157253 214.12571,418.509921 C213.692719,418.862589 213.130561,419.036578 212.563048,418.993569 L212.563048,418.993569 C212.371503,418.979603 212.18244,418.943525 212,418.886126 C213.396096,414.996063 214.100241,410.910555 214.083276,406.798783 C214.026804,404.531814 213.801012,402.271571 213.407619,400.035243 L213.407619,400.035243 Z" id="Path" fill="#000000" fill-rule="nonzero"></path>
                    <path d="M177.744921,427.780632 C179.370932,427.775555 180.990978,427.593004 182.573363,427.23655 L186,441.085914 C178.301357,442.810985 170.221186,442.081168 163,439.008509 L169.074492,426 C171.813231,427.132065 174.75985,427.737207 177.744921,427.780632 Z" id="Path" fill="#000000" fill-rule="nonzero"></path>
                    <path d="M198.003938,413.011105 L213,418.17504 C210.953493,424.232631 207.427106,429.67454 202.74534,434 L192,422.272871 C194.758802,419.751424 196.828103,416.558394 198.009451,413 L198.003938,413.011105 Z" id="Path" fill="#000000" fill-rule="nonzero"></path>
                    <path d="M194,393.106509 L206.328652,384 C209.673935,388.490759 211.95493,393.680089 213,399.177515 L197.896067,402 C197.249163,398.791775 195.920636,395.759167 194,393.106509 L194,393.106509 Z" id="Path" fill="#000000" fill-rule="nonzero"></path>
                    <path d="M178.255079,385.219368 C176.629068,385.224445 175.009022,385.406996 173.426637,385.76345 L170,371.914086 C177.698643,370.189015 185.778814,370.918832 193,373.991491 L186.925508,387 C184.199104,385.83177 181.244551,385.224998 178.255079,385.219368 Z" id="Path" fill="#000000" fill-rule="nonzero"></path>
                    <path d="M157.103933,410 C157.686058,413.228233 159.020651,416.274689 161,418.893491 L148.671348,428 C145.326065,423.509241 143.04507,418.319911 142,412.822485 L157.103933,410 Z" id="Path" fill="#000000" fill-rule="nonzero"></path>
                    <path d="M156.988192,400 L142,394.833333 C144.045433,388.772537 147.569969,383.327749 152.249278,379 L163,390.722222 C160.28813,393.28488 158.226378,396.466699 156.988192,400 L156.988192,400 Z" id="Path" fill="#000000" fill-rule="nonzero"></path>
                    <path d="M185,387.096478 L191.267857,373 C197.102853,375.635018 202.172388,379.71116 206,384.845329 L193.625,394 C191.380062,391.003174 188.412708,388.624391 185,387.085758 L185,387.096478 Z" id="Path" fill="#000000" fill-rule="nonzero"></path>
                    <path d="M168,425.910714 L161.732143,440 C155.897147,437.366326 150.827612,433.292264 147,428.160714 L159.375,419 C161.619938,421.995297 164.587292,424.372867 168,425.910714 L168,425.910714 Z" id="Path" fill="#000000" fill-rule="nonzero"></path>
                    <path d="M163.862069,391 L153,379.246684 C157.89445,374.74171 163.856825,371.55922 170.323607,370 L174,385.596817 C170.204739,386.476089 166.708093,388.339686 163.862069,391 L163.862069,391 Z" id="Path" fill="#000000" fill-rule="nonzero"></path>
                    <path d="M192.137931,421 L203,432.777778 C198.10555,437.270834 192.143175,440.444905 185.676393,442 L182,426.444444 C185.798573,425.545153 189.294197,423.667873 192.137931,421 Z" id="Path" fill="#000000" fill-rule="nonzero"></path>
                    <path d="M155.863473,407.144886 C155.852155,408.48578 155.973338,409.824313 156.225096,411.139205 L141.605232,414 C140.472407,407.651897 140.935205,401.105304 142.948399,395 L157,400.019886 C156.233999,402.309506 155.849582,404.719455 155.863473,407.144886 L155.863473,407.144886 Z" id="Path" fill="#000000" fill-rule="nonzero"></path>
                    <path d="M198.087379,406.855114 C198.098723,405.51422 197.97726,404.175687 197.724919,402.860795 L212.37864,400 C212.792277,402.259558 213.00032,404.554782 213,406.855114 C212.984284,410.983794 212.337557,415.08349 211.084142,419 L197,413.980114 C197.717498,411.678964 198.084414,409.274763 198.087379,406.855114 L198.087379,406.855114 Z" id="Path" fill="#000000" fill-rule="nonzero"></path>
                    <line x1="178" y1="407" x2="203" y2="396" id="Path" fill="#B3B3B3" fill-rule="nonzero"></line>
                    <polygon id="Path" fill="#B3B3B3" fill-rule="nonzero" points="177 406 205 402.16 199.367816 390"></polygon>
                    <line x1="153" y1="417" x2="178" y2="406" id="Path" fill="#B3B3B3" fill-rule="nonzero"></line>
                    <polygon id="Path" fill="#B3B3B3" fill-rule="nonzero" points="155.632184 423 178 407 150 410.851852"></polygon>
                    <polygon id="Path" fill="#B3B3B3" fill-rule="nonzero" points="177 406 184 379 170 379"></polygon>
                    <polygon id="Path" fill="#B3B3B3" fill-rule="nonzero" points="184 434 177 407 170 434"></polygon>
                    <line x1="178" y1="405" x2="155" y2="391" id="Path" fill="#B3B3B3" fill-rule="nonzero"></line>
                    <polygon id="Path" fill="#B3B3B3" fill-rule="nonzero" points="179 406 159.675944 385 152 397.381818"></polygon>
                    <line x1="200" y1="419" x2="177" y2="405" id="Path" fill="#B3B3B3" fill-rule="nonzero"></line>
                    <polygon id="Path" fill="#B3B3B3" fill-rule="nonzero" points="204 413.618182 177 405 196.324056 426"></polygon>
                    <circle id="Oval" fill="#B3B3B3" fill-rule="nonzero" cx="71.5" cy="406.5" r="11.5"></circle>
                    <path d="M54.2380393,374.982211 C53.9880717,374.454023 53.9323794,373.833823 54.0832648,373.258614 C54.2341503,372.683405 54.5791968,372.200521 55.0421838,371.916632 L55.0421838,371.916632 C55.1788065,371.805412 55.3414215,371.74346 55.5091064,371.738746 L69.5686648,368.062422 C70.6273578,367.772775 71.6910819,368.51869 71.9447821,369.728627 C71.9447821,369.728627 71.9447821,369.764204 71.9447821,369.781993 C71.9904559,369.975046 72.0079842,370.175381 71.9966623,370.374948 C65.8203869,370.196656 59.7031587,371.786574 54.2017231,375 L54.2380393,374.982211 Z" id="Path" fill="#000000" fill-rule="nonzero"></path>
                    <path d="M86.77893,437 C87.2755492,438.115385 86.9083185,439.480159 85.949264,440.083368 C85.802355,440.169013 85.6450425,440.228976 85.4825769,440.261254 L71.430109,443.937578 C70.37195,444.227225 69.3087623,443.48131 69.0551901,442.271373 C69.0551901,442.271373 69.0551901,442.235796 69.0551901,442.218007 C69.0095393,442.024954 68.9920199,441.824619 69.003336,441.625052 C75.1803951,441.848889 81.3043487,440.25642 86.7893009,437 L86.77893,437 Z" id="Path" fill="#000000" fill-rule="nonzero"></path>
                    <path d="M33.0359088,405.499445 L35.4247881,390.713865 C35.5118959,390.168188 35.787166,389.68432 36.1897323,389.369252 C36.5922986,389.054184 37.0889974,388.933871 37.5700017,389.034917 L37.5700017,389.034917 L38,389.197396 C35.5774718,395.060523 34.5402627,401.536522 34.9900121,407.990788 C34.5166862,408.04205 34.0447965,407.87793 33.6782761,407.534575 C33.3117557,407.191221 33.0806676,406.696794 33.0359088,406.160192 C33.0359088,406.160192 33.0359088,406.116864 33.0359088,406.095201 C32.9880304,405.900324 32.9880304,405.694322 33.0359088,405.499445 L33.0359088,405.499445 Z" id="Path" fill="#000000" fill-rule="nonzero"></path>
                    <path d="M108.964109,405.445517 L106.577518,420.296491 C106.384533,421.403267 105.460092,422.142846 104.477318,421.976711 L104,421.814109 C106.420208,415.946543 107.456423,409.465641 107.007105,403.006488 C107.488209,402.963096 107.964773,403.138637 108.331837,403.49445 C108.6989,403.850263 108.926356,404.357164 108.964109,404.903511 L108.964109,404.903511 C109.011964,405.080094 109.011964,405.268934 108.964109,405.445517 L108.964109,405.445517 Z" id="Path" fill="#000000" fill-rule="nonzero"></path>
                    <path d="M53,436.883313 C52.5075126,437.89798 51.3395235,438.293491 50.391049,437.766771 L50.391049,437.766771 C50.2485531,437.669357 50.1130823,437.560653 49.9857751,437.441572 L39.6006305,427.251993 C38.8408153,426.462326 38.7961764,425.172837 39.499312,424.325199 C39.6006305,424.2168 39.7526082,424.1084 39.8539267,424 C43.1034139,429.454191 47.6372663,433.897422 53,436.883313 L53,436.883313 Z" id="Path" fill="#000000" fill-rule="nonzero"></path>
                    <path d="M88,374.116687 C88.491598,373.10202 89.6574777,372.706509 90.6042392,373.233229 L90.6295231,373.233229 C90.7717617,373.330643 90.9069878,373.439347 91.0340651,373.558428 L101.400454,383.748007 C102.158897,384.537674 102.203456,385.827163 101.50159,386.674801 C101.394447,386.796073 101.275816,386.90506 101.147615,387 C99.0516591,383.515192 96.4382318,380.42112 93.4107494,377.840219 C91.7051827,376.437789 89.895582,375.187032 88,374.100427 L88,374.116687 Z" id="Path" fill="#000000" fill-rule="nonzero"></path>
                    <path d="M87.7800454,419.153499 C88.7958702,417.865734 89.6701009,416.47328 90.3877551,415 L104,421.334086 C100.626969,428.493141 94.9825231,434.349268 87.9365079,438 L81,424.708804 C83.6238559,423.347086 85.933157,421.454934 87.7800454,419.153499 L87.7800454,419.153499 Z" id="Path" fill="#000000" fill-rule="nonzero"></path>
                    <path d="M88,395.162791 L101.137143,387 C104.492694,392.06908 106.505895,397.854672 107,403.848837 L91.42,405 C91.1280023,401.501428 89.9539906,398.124528 88,395.162791 L88,395.162791 Z" id="Path" fill="#000000" fill-rule="nonzero"></path>
                    <path d="M72,385.474627 L72.5144695,370 C77.922979,370.178294 83.2204258,371.64877 88,374.298507 L81.0598071,388 C78.2642221,386.446484 75.1649916,385.582589 72,385.474627 Z" id="Path" fill="#000000" fill-rule="nonzero"></path>
                    <path d="M54.1678005,392.846501 C53.1696932,394.136383 52.312973,395.528795 51.6122449,397 L38,390.665914 C41.3730311,383.506859 47.0174769,377.650732 54.0634921,374 L61,387.239278 C58.3601868,388.621798 56.0345226,390.530483 54.1678005,392.846501 L54.1678005,392.846501 Z" id="Path" fill="#000000" fill-rule="nonzero"></path>
                    <path d="M61.9453376,424 C64.7391047,425.553439 67.8366506,426.417354 71,426.525373 L70.4855305,442 C65.077021,441.821706 59.7795742,440.35123 55,437.701493 L61.9453376,424 Z" id="Path" fill="#000000" fill-rule="nonzero"></path>
                    <path d="M53,415.889535 L39.8461538,424 C36.5001629,418.93092 34.4926974,413.145328 34,407.151163 L49.5897436,406 C49.8477724,409.521331 51.0207229,412.922816 53,415.889535 L53,415.889535 Z" id="Path" fill="#000000" fill-rule="nonzero"></path>
                    <path d="M60.9540698,388 L54,374.232196 C59.5497552,371.256192 65.7490113,369.805797 72,370.020868 L71.4767442,385.570388 C67.8254917,385.419027 64.1994575,386.256669 60.9593023,388 L60.9540698,388 Z" id="Path" fill="#000000" fill-rule="nonzero"></path>
                    <path d="M80.0406977,424 L87,437.767804 C81.4502448,440.743808 75.2509887,442.194203 69,441.979132 L69.5232558,426.429612 C73.1745083,426.580973 76.8005425,425.743331 80.0406977,424 L80.0406977,424 Z" id="Path" fill="#000000" fill-rule="nonzero"></path>
                    <path d="M49.9564785,406.85879 L34.1053793,408 C33.619896,401.819883 34.8173263,395.625406 37.5848889,390 L52,396.32853 C50.3691797,399.616111 49.6654902,403.24222 49.9564785,406.85879 L49.9564785,406.85879 Z" id="Path" fill="#000000" fill-rule="nonzero"></path>
                    <path d="M91.0423145,404.14121 L106.884052,403 C107.397562,409.181499 106.199549,415.382654 103.406597,421 L89,414.67147 C90.6109967,411.378273 91.3133748,407.756782 91.0423145,404.14121 L91.0423145,404.14121 Z" id="Path" fill="#000000" fill-rule="nonzero"></path>
                    <path d="M58.6506329,422.236641 C59.7120854,423.048543 60.8315666,423.780801 62,424.427481 L54.8227848,438 C49.2173188,435.006734 44.4608065,430.630538 41,425.282443 L53.9189873,417 C55.2074048,418.988658 56.804921,420.756673 58.6506329,422.236641 Z" id="Path" fill="#000000" fill-rule="nonzero"></path>
                    <path d="M83.2962025,389.736709 C82.2530721,388.929351 81.1512943,388.200756 80,387.556962 L87.1772152,374 C92.7976867,376.980719 97.5575913,381.35617 101,386.706329 L88.1341772,395 C86.7937247,393.013563 85.1629279,391.2394 83.2962025,389.736709 L83.2962025,389.736709 Z" id="Path" fill="#000000" fill-rule="nonzero"></path>
                    <line x1="70" y1="406" x2="78" y2="381" id="Path" fill="#B3B3B3" fill-rule="nonzero"></line>
                    <polygon id="Path" fill="#B3B3B3" fill-rule="nonzero" points="70 407 84 382.719165 70.2129278 379"></polygon>
                    <line x1="63" y1="431" x2="71" y2="406" id="Path" fill="#B3B3B3" fill-rule="nonzero"></line>
                    <polygon id="Path" fill="#B3B3B3" fill-rule="nonzero" points="70.7338403 434 71 406 57 430.234848"></polygon>
                    <line x1="70" y1="406" x2="49" y2="390" id="Path" fill="#B3B3B3" fill-rule="nonzero"></line>
                    <polygon id="Path" fill="#B3B3B3" fill-rule="nonzero" points="70 406 53.6242512 385 45 395.445287"></polygon>
                    <line x1="92" y1="423" x2="71" y2="407" id="Path" fill="#B3B3B3" fill-rule="nonzero"></line>
                    <polygon id="Path" fill="#B3B3B3" fill-rule="nonzero" points="95 417.549763 70 407 86.4112653 428"></polygon>
                    <line x1="70" y1="407" x2="45" y2="416" id="Path" fill="#B3B3B3" fill-rule="nonzero"></line>
                    <polygon id="Path" fill="#B3B3B3" fill-rule="nonzero" points="70 406 42 408.179054 46.7376426 421"></polygon>
                    <line x1="95" y1="397" x2="70" y2="406" id="Path" fill="#B3B3B3" fill-rule="nonzero"></line>
                    <polygon id="Path" fill="#B3B3B3" fill-rule="nonzero" points="94.2570342 391 71 406 99 403.820946"></polygon>
                    <path d="M360.927277,291.196464 C361.186927,291.456404 361.498507,291.716343 361.810088,291.976283 C362.567162,292.624745 363.384454,293.199228 364.2508,293.691887 L367.989763,294.731647 C370.876838,295.611513 373.975717,294.269367 375.311898,291.56038 L381.751223,278.771335 C382.269558,277.788026 381.954466,276.571311 381.024203,275.963983 L379.466301,274.924224 C378.523621,274.263199 377.230785,274.444852 376.506289,275.340128 L368.664853,284.645977 C368.483844,284.813103 368.293099,284.969341 368.093623,285.113869 C366.672329,285.889033 364.892704,285.380001 364.095009,283.970133 C363.63718,283.131722 363.617788,282.122171 364.043079,281.266758 C364.163951,281.047579 364.302915,280.8389 364.45852,280.642902 L373.286627,272.272836 C374.124714,271.494029 374.21557,270.197876 373.494347,269.309521 L372.351886,267.853858 C371.667278,266.990223 370.459476,266.748393 369.495734,267.28199 L357.084454,274.50832 C354.479528,276.034766 353.341835,279.210718 354.384092,282.046578 L355.630413,285.737725 C355.739587,285.979794 355.879197,286.206913 356.045853,286.413569 C357.079536,287.915807 358.320921,289.2636 359.732886,290.416644 L360.927277,291.196464 Z" id="Path" fill="url(#radialGradient-7)" fill-rule="nonzero"></path>
                    <path d="M306.766633,299.99025 L355.741189,297.605399 C357.709823,297.508578 359.479838,296.313728 360.384487,294.470939 C361.289137,292.628149 361.190982,290.417383 360.126997,288.671414 C359.063013,286.925446 357.194843,285.909529 355.226209,286.00635 L306.251654,288.391201 C303.22478,288.566357 300.889871,291.262583 301.004012,294.450891 C301.129494,297.638169 303.681295,300.117881 306.709986,299.99567 L306.766633,299.99025 Z" id="Path" fill="url(#linearGradient-8)" fill-rule="nonzero"></path>
                    <path d="M250.462287,333.25249 L310.005101,298.673957 C311.7942,297.719431 312.936475,295.873475 312.997436,293.83824 C313.058397,291.803005 312.028675,289.891303 310.299947,288.83029 C308.571219,287.769276 306.409188,287.722029 304.636228,288.706518 C304.546571,288.754234 304.45164,288.807253 304.361983,288.865573 L244.824442,323.444105 C243.532674,324.187214 242.587476,325.415771 242.196795,326.859487 C241.806114,328.303204 242.001956,329.843809 242.741234,331.142362 L242.767604,331.184777 C244.337895,333.874129 247.766611,334.795493 250.462287,333.25249 L250.462287,333.25249 Z" id="Path" fill="url(#linearGradient-9)" fill-rule="nonzero"></path>
                    <circle id="Oval" fill="#000000" fill-rule="nonzero" cx="306" cy="294" r="4"></circle>
                    <circle id="Oval" fill="#000000" fill-rule="nonzero" cx="248" cy="329" r="4"></circle>
                    <path d="M271,213.736842 L257.195031,212 L255.055516,230.526316 C254.55502,234.797557 257.494231,238.68179 261.626885,239.210526 L267.943549,240 L271,213.736842 Z" id="Path" fill="url(#radialGradient-10)" fill-rule="nonzero"></path>
                    <path d="M289,242.156604 L295.743202,242.942874 C300.156388,243.457883 304.169704,240.43344 304.716012,236.180947 L307,217.729795 L292.26284,216 L289,242.156604 Z" id="Path" fill="url(#radialGradient-11)" fill-rule="nonzero"></path>
                    <path d="M291,229.569435 L269.551836,227 L264.057725,272.14865 C263.45278,277.982435 267.670142,283.220915 273.536068,283.921912 C279.401994,284.622908 284.751438,280.527691 285.558717,274.718085 L291,229.569435 Z" id="Path" fill="url(#radialGradient-12)" fill-rule="nonzero"></path>
                    <path d="M217.014408,211.438942 L223.137562,161.239345 C223.387423,159.149444 224.466003,157.243371 226.136016,155.940456 C227.806029,154.637541 229.930672,154.044516 232.042528,154.291846 L232.111149,154.291846 L245.624316,155.911188 L247.260676,143.948953 C241.970287,142.309928 238.784288,136.982564 239.878139,131.604485 C240.971991,126.226406 245.992597,122.533651 251.511795,123.047702 C257.030993,123.561754 261.26719,128.116677 261.327831,133.602284 C261.388472,139.087891 257.253983,143.733434 251.74747,144.366848 L250.058324,156.433556 L345.91735,167.873423 C348.033542,168.123171 349.962747,169.194768 351.280402,170.852383 C352.598057,172.509998 353.19618,174.617791 352.943141,176.711895 L352.943141,176.753684 L346.819988,226.953281 C346.644833,228.206322 345.506708,229.102756 344.233483,228.990518 L219.078333,214.050783 C217.796036,213.908656 216.872407,212.765542 217.014408,211.496402 C217.014408,211.496402 217.014408,211.459836 217.014408,211.438942 L217.014408,211.438942 Z" id="Path" fill="#8DC63F" fill-rule="nonzero"></path>
                    <circle id="Oval" fill="#333333" fill-rule="nonzero" cx="243.5" cy="188.5" r="10.5"></circle>
                    <path d="M322.975609,174.175711 C309.861518,172.591588 297.940806,181.895183 296.348933,194.956669 L296.348933,194.983141 L293,222.408711 L312.987283,224.791241 C320.265964,225.688892 327.60444,223.668628 333.387042,219.175241 C339.169644,214.681854 342.922271,208.083743 343.81873,200.833576 L343.81873,200.701214 C345.429596,187.661941 336.125148,175.789914 323.034082,174.181006 L322.975609,174.175711 Z" id="Path" fill="url(#radialGradient-13)" fill-rule="nonzero"></path>
                    <ellipse id="Oval" fill="#333333" fill-rule="nonzero" cx="319.5" cy="197" rx="17.5" ry="17"></ellipse>
                    <circle id="Oval" fill="url(#radialGradient-14)" fill-rule="nonzero" cx="319.5" cy="197.5" r="12.5"></circle>
                    <path d="M279.050633,214 L287,214 C289.206829,213.99308 290.994434,211.770631 291,209.026978 L291,207 L275,207 L275,209.014388 C275.049101,211.759683 276.84204,213.960901 279.050633,213.98741 L279.050633,214 Z" id="Path" fill="#333333" fill-rule="nonzero"></path>
                    <circle id="Oval" fill="#8DC63F" fill-rule="nonzero" cx="276" cy="274" r="6"></circle>
                    <path d="M324.764349,2.026206 L314,143.989335 L317.046415,188.324641 C332.722651,186.752282 331.677569,203 331.677569,203 L492.583681,197.31854 L561,71.970013 C561,71.970013 467.987666,8.59867014 324.764349,2 L324.764349,2.026206 Z" id="Path" fill="url(#linearGradient-15)" opacity="0.5"></path>
                    <path d="M494.306757,192 L493.664124,191.738854 C492.726512,191.362803 398.443838,154.248687 314.959504,143.818503 L315.149133,142.288186 C395.151661,152.284867 484.94644,186.656946 493.585112,190.057071 L560.940414,70.3528196 C556.93186,67.8405919 533.97617,53.6342319 496.577042,38.9055793 C441.608407,17.3669274 383.491683,4.77416209 324.472577,1.61388428 L314.46436,138.38666 L313,138.062838 L323.008217,0 L323.782537,0.0365604853 C383.257036,3.14807611 441.829344,15.800245 497.219675,37.5006121 C538.374518,53.7648051 562.194075,69.3134572 562.394239,69.4962596 L563,69.9140937 L562.647079,70.4990615 L494.306757,192 Z" id="Path" fill="#0FD195" fill-rule="nonzero"></path>
                    <path d="M368.733971,141.995589 L368.608525,141.995589 C368.488534,141.995589 357.536607,139.272489 339.881534,136.269234 C339.291762,136.150668 338.906429,135.5644 339.019778,134.958112 C339.01721,134.937652 339.01721,134.916938 339.019778,134.896478 C339.13519,134.316001 339.670492,133.92811 340.241507,134.01119 C357.940214,137.04246 369.012132,139.765561 369.148486,139.776767 C369.752308,139.943999 370.115613,140.575995 369.966608,141.199951 C369.77412,141.717626 369.271498,142.042056 368.733971,141.995589 L368.733971,141.995589 Z" id="Path" fill="#FFFFFF" fill-rule="nonzero"></path>
                    <polygon id="Path" fill="#FFFFFF" fill-rule="nonzero" points="368.661104 142 365 141.111388 373.333761 107 377 107.883475"></polygon>
                    <polygon id="Path" fill="#FFFFFF" fill-rule="nonzero" points="360.626561 140 357 139.133078 362.373439 113 366 113.86147"></polygon>
                    <polygon id="Path" fill="#FFFFFF" fill-rule="nonzero" points="352.245509 136 348 135.297521 354.736527 106 359 106.702479"></polygon>
                    <polygon id="Path" fill="#FFFFFF" fill-rule="nonzero" points="343.290323 135 339 134.399394 341.709677 120 346 120.600606"></polygon>
                    <path d="M500.238312,155.975432 C500.111853,155.949837 499.987201,155.916015 499.865151,155.874182 C499.518644,155.724972 463.487273,139.402467 422.125029,128.95244 C421.322745,128.744953 420.840629,127.926609 421.048193,127.124618 C421.255756,126.322628 422.074398,125.840687 422.876682,126.048175 C464.457492,136.562149 500.739414,152.975245 501.128568,153.1511 C501.813086,153.464444 502.157012,154.238333 501.930752,154.956143 C501.704491,155.673954 500.978879,156.11096 500.238312,155.975432 L500.238312,155.975432 Z" id="Path" fill="#FFFFFF" fill-rule="nonzero"></path>
                    <path d="M495.299833,167.964235 C495.185551,167.964235 495.050491,167.872448 494.936209,167.867048 C471.128987,156.749507 446.451329,147.766704 421.172523,141.016661 C420.659378,140.907674 420.241152,140.522424 420.075387,140.00603 C419.909622,139.489636 420.021502,138.92055 420.368883,138.513142 C420.716264,138.105734 421.24637,137.921898 421.759516,138.030885 L421.91016,138.074079 C447.363573,144.881011 472.214114,153.9249 496.193308,165.10804 C496.899515,165.47339 497.196799,166.357258 496.863415,167.100357 C496.623957,167.752004 495.959081,168.120572 495.305027,167.964235 L495.299833,167.964235 Z" id="Path" fill="#FFFFFF" fill-rule="nonzero"></path>
                    <path d="M490.246204,174.978027 C490.130168,174.978027 489.993034,174.888704 489.876997,174.878196 C489.528888,174.73633 457.998606,160.166239 417.090466,149.909904 C416.308708,149.694067 415.844747,148.894003 416.047585,148.11154 C416.250423,147.329078 417.04524,146.852843 417.834154,147.041072 C458.974368,157.413002 490.826387,172.030381 491.148124,172.224789 C491.880317,172.57962 492.19958,173.447862 491.870715,174.189886 C491.545011,174.773187 490.885824,175.088894 490.225107,174.978027 L490.246204,174.978027 Z" id="Path" fill="#FFFFFF" fill-rule="nonzero"></path>
                    <path d="M402.453818,144.998679 L389.29058,142.074859 C389.103989,142.026484 388.98103,141.845711 389.002409,141.651192 L390.129363,136.300445 C390.174805,136.108688 390.35326,135.981046 390.546182,136.002309 L403.70942,138.926129 C403.896011,138.974504 404.01897,139.155277 403.997591,139.349795 L402.870637,144.700543 C402.880929,144.888839 402.685384,145.01437 402.453818,144.998679 Z" id="Path" fill="#FFFFFF" fill-rule="nonzero"></path>
                    <path d="M404.344795,129.989447 L391.274398,127.00737 C391.17871,126.981003 391.097421,126.917453 391.048502,126.830769 C390.999582,126.744084 390.987061,126.641406 391.013706,126.545431 L391.013706,126.545431 L392.204712,121.274186 C392.257132,121.077324 392.458363,120.960221 392.654534,121.012421 L392.654534,121.012421 L405.719819,123.994497 C405.914311,124.040273 406.035396,124.235265 405.990735,124.430774 L405.990735,124.430774 L404.779282,129.722549 C404.757481,129.816131 404.699249,129.897041 404.617602,129.947196 C404.535954,129.997351 404.437698,130.012568 404.344795,129.989447 L404.344795,129.989447 Z" id="Path" fill="#FFFFFF" fill-rule="nonzero"></path>
                    <path d="M378.235622,63 L353,57.9889249 L355.775918,45.170255 C355.98004,44.3876469 356.777536,43.8874041 357.606843,44.0217764 L379.765867,48.456037 C380.603897,48.6359153 381.138281,49.4253683 380.968586,50.2328314 L378.235622,63 Z" id="Path" stroke="#152747" stroke-width="2.02" fill="#152747" fill-rule="nonzero"></path>
                    <path d="M363,46 C363.992703,47.9832992 365.874177,49.4134754 368.100439,49.8770282 C370.174782,50.2510405 372.316014,49.7631502 374,48.5327841" id="Path" stroke="#152747" stroke-width="2.02" fill="#152747" opacity="0.18"></path>
                    <path d="M362.228473,37.3399243 C361.190319,42.7578845 363.785703,47.9157826 368.073278,48.8530897 C372.360853,49.7903968 376.72629,46.1441096 377.785207,40.7261494 C378.844124,35.3081893 375.864622,32.1874442 371.556284,31.2501371 C367.247946,30.31283 363.282199,31.9382181 362.2129,37.3399243 L362.228473,37.3399243 Z" id="Path" stroke="#152747" stroke-width="2.02" fill="#152747"></path>
                    <path d="M376.374489,63.9910581 C375.852614,63.9754459 375.333299,63.9115649 374.823173,63.8002304 L354.206027,59.5596159 C349.321311,58.5221664 346.186776,53.7344144 347.185397,48.8361621 L351.479312,28.221475 C352.510827,23.3342557 357.283924,20.1926394 362.17439,21.182055 L382.765062,25.4756771 C387.655762,26.4832339 390.810005,31.2627917 389.81746,36.1620256 L385.523545,56.7714119 C384.612307,61.0796482 380.755509,64.1200565 376.358605,63.9963588 L376.374489,63.9910581 Z M354.518408,58.0011901 L375.109081,62.300113 C379.147284,63.1092324 383.088198,60.5292031 383.966935,56.5010728 L388.26085,35.8863857 C389.096643,31.836989 386.50854,27.8721463 382.468565,27.0128999 L361.883187,22.713977 C357.838508,21.8772088 353.878284,24.4683306 353.020038,28.5130172 L348.726123,49.1224036 C347.926461,53.1660522 350.498683,57.1089197 354.518408,58.0011901 L354.518408,58.0011901 Z" id="Shape" stroke="#152747" stroke-width="2.02" fill="#152747" fill-rule="nonzero"></path>
                    <path d="M377.220254,63 L352,57.9886953 L354.768862,45.1825993 C354.95628,44.3795632 355.778826,43.8674936 356.620136,44.0301021 L378.765666,48.4600132 C379.604956,48.6372688 380.140294,49.4278382 379.967652,50.2350646 L377.220254,63 Z" id="Path" fill="#FFFFFF" fill-rule="nonzero"></path>
                    <path d="M361,43 C362.800058,46.4358508 367.427173,47.9478712 371.349854,46.3820623 L371.408163,46.3820623 C371.97117,46.1567504 372.504864,45.8788502 373,45.5531756" id="Path" fill="#28454C" opacity="0.18"></path>
                    <path d="M361.229294,36.3725824 C360.18811,41.7942833 362.79107,46.9557425 367.044306,47.8611666 C371.297541,48.7665906 375.722573,45.1503161 376.78458,39.7286152 C377.846588,34.3069143 374.85839,31.1840146 370.537477,30.2460604 C366.216564,29.3081061 362.332949,30.9888334 361.229294,36.3725824 Z" id="Path" fill="#FFFFFF"></path>
                    <path d="M375.373272,62.9957317 C374.851069,62.9854625 374.331299,62.9215399 373.822144,62.80497 L353.207481,58.5658224 C348.325734,57.5209669 345.19313,52.7384845 346.182402,47.8407789 L350.491681,27.2120266 C351.530309,22.3225657 356.313464,19.1859904 361.206647,20.1856394 L381.794841,24.4830753 C386.678969,25.520166 389.813126,30.3062619 388.814626,35.2028199 L384.579461,55.8368711 C383.623893,60.1247873 379.760419,63.1290786 375.373272,62.9957317 Z M353.519824,57.0079356 L374.102723,61.3053716 C378.146916,62.1418502 382.106663,59.5516247 382.964805,55.5083372 L387.199969,34.8795849 C388.035662,30.8315889 385.44787,26.8681177 381.408382,26.0091685 L360.825483,21.7117326 C356.786531,20.9026612 352.844518,23.4812862 351.963401,27.508767 L347.670003,48.1110245 C346.865306,52.1694059 349.454787,56.1256122 353.493354,57.0079356 L353.519824,57.0079356 Z" id="Shape" fill="#FFFFFF" fill-rule="nonzero"></path>
                    <path d="M516.9794,79.3612412 C516.557778,79.2462306 516.174555,79.0302726 515.866685,78.734192 C515.599545,78.4715999 515.426327,78.1361127 515.371527,77.7751756 L514.258812,81 L512,80.2675644 L514.976513,72 L516.923765,72.6165105 L516.623332,73.4912178 C516.946384,73.2452405 517.328626,73.0787089 517.736047,73.0064403 C518.167751,72.9271992 518.614502,72.9693283 519.021233,73.1276347 C519.810465,73.3810476 520.446727,73.9433566 520.768196,74.6715457 C520.940384,75.0408961 521.01852,75.4434014 520.996302,75.8466042 C521.007948,76.2855253 520.928558,76.7223464 520.762632,77.1323185 C520.61733,77.5527631 520.39096,77.9440396 520.095003,78.2862998 C519.82548,78.5977799 519.517255,78.8773181 519.177013,79.1188525 C518.857463,79.3290461 518.485314,79.4562244 518.097679,79.4877049 C517.721434,79.5293846 517.340115,79.4860465 516.984964,79.3612412 L516.9794,79.3612412 Z M516.845875,77.3167447 C517.006096,77.3631724 517.175118,77.3757631 517.341033,77.35363 C517.500247,77.3270648 517.650735,77.2657236 517.780555,77.1744731 L518.181133,76.8477752 C518.324408,76.7284385 518.425419,76.5702184 518.470439,76.3946136 C518.609529,76.0775413 518.609529,75.7210536 518.470439,75.4039813 C518.293086,75.1196249 518.021083,74.8990748 517.697102,74.7769321 C517.255135,74.6399231 516.769478,74.7407939 516.428606,75.0403981 L516.04472,76.0521077 C516.056048,76.3420799 516.144044,76.6247206 516.300644,76.8741218 C516.428577,77.0764689 516.624479,77.2323232 516.857002,77.3167447 L516.845875,77.3167447 Z" id="Shape" fill="#152747" fill-rule="nonzero"></path>
                    <path d="M517.047517,77.3138173 C516.622972,77.2029346 516.237732,76.9863772 515.932044,76.6867681 C515.664241,76.424176 515.490594,76.0886888 515.435658,75.7277518 L514.264411,79 L512,78.2675644 L514.983891,70 L516.93597,70.6165105 L516.634792,71.4912178 C517.301148,70.9731316 518.21117,70.8342006 519.016328,71.1276347 C519.807516,71.3810476 520.445356,71.9433566 520.767621,72.6715457 C520.940236,73.0408961 521.018566,73.4434014 520.996293,73.8466042 C521.007967,74.2855253 520.928381,74.7223464 520.762044,75.1323185 C520.616382,75.5527631 520.38945,75.9440396 520.09276,76.2862998 C519.838642,76.5887938 519.537818,76.853463 519.200381,77.0714286 C518.880039,77.2816222 518.506968,77.4088005 518.118372,77.440281 C517.757237,77.4404457 517.397497,77.3979618 517.047517,77.3138173 L517.047517,77.3138173 Z M516.91366,75.2693208 C517.07582,75.3175968 517.247514,75.3302132 517.415623,75.3062061 C517.573962,75.2810017 517.723339,75.219485 517.850658,75.1270492 L518.257806,74.8003513 L518.542252,74.352459 C518.66489,74.0306017 518.66489,73.6784147 518.542252,73.3565574 C518.411982,73.0386207 518.120205,72.8046052 517.766998,72.7347775 C517.325003,72.5952153 516.837635,72.6941716 516.495358,72.9929742 L516.11052,74.0046838 C516.121876,74.294656 516.210091,74.5772967 516.367078,74.8266979 C516.489451,75.0337064 516.687871,75.191174 516.924815,75.2693208 L516.91366,75.2693208 Z" id="Shape" fill="#FFFFFF" fill-rule="nonzero"></path>
                    <path d="M525.490384,80.9908257 C525.1331,81.0108308 524.774766,80.9981034 524.419735,80.952798 C524.057053,80.9197185 523.698449,80.8505747 523.349085,80.7463621 C523.113189,80.6579161 522.888546,80.5411957 522.67993,80.3986807 C522.486771,80.2831382 522.3249,80.1207375 522.208844,79.9260512 C522.083666,79.7133654 522.011967,79.4726956 522.000067,79.2252557 C521.997969,78.9314142 522.045032,78.6393426 522.139252,78.3614845 L523.097483,75.5854652 L522.369441,75.3301366 L522.904766,73.6460545 L523.632808,73.9013831 L524.259137,72 L526.432556,72.7551207 L525.806226,74.6565038 L527,75.0693755 L526.464675,76.7534577 L525.270901,76.3405859 L524.591039,78.3343219 C524.517739,78.4845984 524.504319,78.6577587 524.553566,78.8178165 C524.617805,78.9210344 524.72487,79.0514149 524.847995,79.06228 C524.971119,79.073145 525.104951,79.1546329 525.249488,79.1166052 C525.393828,79.1274603 525.538761,79.1274603 525.683101,79.1166052 L525.490384,80.9908257 Z" id="Path" fill="#152747" fill-rule="nonzero"></path>
                    <path d="M527.750836,82.5941283 C527.173022,82.4139106 526.628217,82.1518366 526.135452,81.8170609 C525.671971,81.4890958 525.285497,81.075597 525,80.6022091 L526.246656,79.5077479 C526.534232,79.8540382 526.849221,80.1796442 527.188963,80.4818183 C527.471605,80.7133286 527.79418,80.8983605 528.142977,81.0290489 C528.470736,81.1494396 528.66388,81.067355 528.757525,80.9250751 C528.78232,80.7925991 528.743822,80.6566152 528.652174,80.5529583 C528.457211,80.3697261 528.24354,80.204771 528.014214,80.0604508 C527.650084,79.8456929 527.302011,79.6080103 526.972408,79.3490511 C526.741332,79.1640182 526.52967,78.9587884 526.340301,78.7361528 C526.206365,78.5662933 526.123507,78.3660049 526.100334,78.1560884 C526.083372,77.9343289 526.111168,77.7115646 526.182274,77.4994118 C526.301152,77.2074917 526.473455,76.93714 526.691472,76.7004551 C526.920126,76.48172 527.19527,76.3102165 527.499164,76.197003 C527.82032,76.07207 528.163906,76.0052211 528.511706,76 C528.890264,76.0048695 529.265602,76.0658213 529.623746,76.1805861 C530.097041,76.310177 530.542639,76.5157123 530.940635,76.788012 C531.355879,77.0957283 531.713831,77.4655389 532,77.8824731 L530.624582,78.9769343 C530.400784,78.6557205 530.124262,78.369476 529.805184,78.1287269 C529.603348,77.9526263 529.364013,77.8183618 529.102843,77.7347209 C528.977371,77.6857741 528.836174,77.6857741 528.710702,77.7347209 C528.60053,77.753685 528.517027,77.838451 528.505853,77.9426685 C528.481746,78.0742646 528.517847,78.2092778 528.605351,78.3147853 C528.816022,78.5198515 529.049508,78.7033014 529.301839,78.8620159 C529.664991,79.0781165 530.012972,79.3157358 530.343645,79.5734156 C530.563865,79.7736171 530.760116,79.9956417 530.92893,80.2355646 C531.054972,80.4387844 531.142121,80.6610095 531.186455,80.8922413 C531.175663,81.1287176 531.138391,81.3634852 531.075251,81.5926964 C530.957936,81.8865253 530.783293,82.1574351 530.560201,82.391653 C530.341953,82.5961214 530.078164,82.7530729 529.787625,82.8513267 C529.47258,82.9574453 529.139091,83.0075569 528.804348,82.9990789 C528.46383,82.8421714 528.104166,82.7245656 527.733278,82.6488514 L527.750836,82.5941283 Z" id="Path" fill="#152747" fill-rule="nonzero"></path>
                    <path d="M527.732558,81.6275814 C527.15834,81.442689 526.617173,81.1748058 526.127907,80.8332619 C525.667774,80.502326 525.283842,80.0844652 525,79.6056773 L526.290698,78.528069 C526.574744,78.8825925 526.887739,79.2150617 527.226744,79.522357 C527.507508,79.7573523 527.827939,79.9451695 528.174419,80.0778252 C528.5,80.2000282 528.69186,80.116708 528.755814,79.9722862 C528.814092,79.8464116 528.757538,79.6990525 528.627907,79.6390053 C528.430867,79.4560222 528.216806,79.2905509 527.988372,79.1446387 C527.626577,78.9247328 527.280821,78.6816196 526.953488,78.4169754 C526.741389,78.2218999 526.546901,78.0100703 526.372093,77.7837417 C526.23908,77.6092196 526.156833,77.4041465 526.133721,77.1893907 C526.123069,76.9644642 526.150556,76.7393719 526.215116,76.5228289 C526.335357,76.227979 526.508493,75.9554202 526.726744,75.7174001 C526.952817,75.4953609 527.223819,75.3195993 527.523256,75.2008147 C527.837561,75.0599694 528.182048,74.9914809 528.52907,75.0008461 C528.906408,75.0117237 529.280251,75.0734339 529.639535,75.1841506 C530.098221,75.3407982 530.535481,75.5496784 530.94186,75.806275 C531.35894,76.115568 531.716924,76.491413 532,76.9172113 L530.662791,77.9614915 C530.438412,77.6352558 530.161784,77.3447223 529.843023,77.1005158 C529.643509,76.9205235 529.405467,76.7840676 529.145349,76.7005787 C529.024635,76.641861 528.884313,76.6318563 528.755814,76.6728053 C528.649617,76.695799 528.570295,76.7804999 528.55814,76.8838832 C528.509578,77.0173667 528.548381,77.1656553 528.656977,77.2616016 C528.866343,77.4674937 529.096099,77.653519 529.343023,77.8170697 C529.72346,78.0442969 530.086754,78.296728 530.430233,78.5725065 C530.651876,78.7711031 530.847138,78.9949678 531.011628,79.2390683 C531.138078,79.4311059 531.210196,79.6512105 531.22093,79.8778567 C531.21021,80.1178928 531.173186,80.3561943 531.110465,80.5888559 C530.99393,80.8871079 530.820447,81.1620957 530.598837,81.3998394 C530.38204,81.6073857 530.120004,81.7666999 529.831395,81.8664327 C529.502371,81.9806465 529.150604,82.0224192 528.802326,81.9886357 C528.45493,81.851174 528.099718,81.7324867 527.738372,81.6331361 L527.732558,81.6275814 Z" id="Path" fill="#FFFFFF" fill-rule="nonzero"></path>
                    <path d="M525.524423,79.9794894 C525.164594,80.0068369 524.803244,80.0068369 524.443414,79.9794894 C524.078443,79.9377033 523.717091,79.8682386 523.362405,79.7716815 C523.124399,79.6845651 522.897571,79.5688989 522.686775,79.4271579 C522.487868,79.3135662 522.323402,79.1471658 522.211131,78.9459185 C522.087894,78.7324062 522.015707,78.4926975 522.000334,78.2459339 C521.995502,77.9481482 522.043088,77.6518687 522.140865,77.3709532 L523.059723,74.5491405 L522.330042,74.2975835 L522.870546,72.6569947 L523.600227,72.9085517 L524.232617,71 L526.427065,71.7601395 L525.794675,73.6741598 L527,74.0897756 L526.459496,75.7303644 L525.259576,75.3202172 L524.56773,77.3217356 C524.495971,77.4755704 524.482508,77.6507014 524.529895,77.8139122 C524.594755,77.9123475 524.708261,78.0435946 524.827172,78.0545319 C524.946083,78.0654691 525.086614,78.1474986 525.205525,78.1584358 C525.351261,78.1693831 525.497598,78.1693831 525.643334,78.1584358 L525.524423,79.9794894 Z" id="Path" fill="#FFFFFF" fill-rule="nonzero"></path>
                    <path d="M442.789305,65.0211723 C442.37505,66.7521703 441.563432,68.3555829 440.422596,69.6967839 C439.333099,70.9808566 437.989291,72.0100244 436.481444,72.715151 C434.902638,73.4484004 433.205135,73.872961 431.475527,73.9671759 C429.606501,74.0846431 427.731402,73.886338 425.92461,73.3801269 C424.157832,72.9113075 422.480718,72.1384744 420.964108,71.0942723 C419.500978,70.1182654 418.234721,68.8605252 417.234901,67.3901489 C416.241603,65.9732246 415.553441,64.3543967 415.216386,62.6418055 C414.873297,60.8306788 414.938904,58.9626201 415.408145,57.1817302 C415.63499,56.2806561 416.014207,55.4277513 416.528421,54.6620951 C416.998791,53.9701472 417.532799,53.3264437 418.123048,52.7398992 C418.676386,52.184845 419.305377,51.715814 419.990175,51.347606 C420.602199,50.9853588 421.239831,50.6710325 421.897672,50.4072885 C421.003973,49.4857686 420.399281,48.3094831 420.161749,47.0304579 C419.86904,45.7491561 419.86904,44.4154167 420.161749,43.1341149 C420.557085,41.453529 421.393226,39.9170247 422.578921,38.6922839 C424.879005,36.3873668 427.948161,35.0751713 431.15761,35.0245263 C434.224589,34.8435767 437.268421,35.6674444 439.852365,37.3779175 C441.215409,38.2386409 442.433911,39.3211442 443.460461,40.583309 C444.479092,41.83401 445.232011,43.2904664 445.670735,44.8588961 C446.109755,46.5223527 446.109755,48.2762707 445.670735,49.9397273 C445.321194,51.2276312 444.655609,52.4012647 443.738007,53.3477287 C442.900239,54.3304026 441.810767,55.0505338 440.594169,55.4257783 C441.030952,55.9998327 441.424048,56.6077356 441.769954,57.2440717 C442.169211,57.954782 442.476284,58.7162891 442.683333,59.5091458 C442.905201,60.3583993 443.042162,61.2287771 443.092082,62.1067078 C443.155999,63.0879344 443.058756,64.0732328 442.804444,65.0211723 L442.789305,65.0211723 Z M433.100431,61.7482442 C433.418431,60.749228 433.277274,59.6555021 432.716914,58.7766333 C432.095026,57.9298012 431.200557,57.3386148 430.193769,57.1089985 C429.195998,56.7794249 428.11393,56.8518338 427.165997,57.3116083 C426.331939,57.778431 425.712293,58.5673781 425.443496,59.5047358 C425.174699,60.4420936 425.27879,61.4510028 425.732851,62.3093176 L425.783314,62.3976347 C425.783314,62.4651713 425.843869,62.4963421 425.864054,62.5638787 C427.061291,64.4409526 429.433102,65.0993813 431.384693,64.0964403 C432.236659,63.5864756 432.854619,62.7463347 433.100431,61.7638296 L433.100431,61.7482442 Z M430.012103,46.06936 C429.729907,46.8576901 429.859396,47.7398754 430.355251,48.4071658 C430.78836,48.9842528 431.39252,49.4001216 432.076035,49.591654 C432.785528,49.7728095 433.531763,49.7275121 434.215661,49.4617759 C434.987731,49.1389228 435.53917,48.4233802 435.668992,47.5759459 C435.837867,46.893592 435.730419,46.1698918 435.371261,45.5706281 C434.915735,44.9153004 434.242337,44.4549761 433.478903,44.2770422 C432.737315,44.0440781 431.937173,44.1128782 431.243397,44.4692618 C430.634112,44.8024349 430.187736,45.3825116 430.012103,46.06936 L430.012103,46.06936 Z" id="Shape" fill="#152747" fill-rule="nonzero"></path>
                    <path d="M445,76.6743463 C445.406744,75.1133747 445.968833,73.5949283 446.678253,72.1406557 C447.284057,70.9503557 448.080834,69.8621442 449.038463,68.9171601 C450.003383,67.9914693 451.122071,67.232036 452.347019,66.6711116 C453.790542,66.0485121 455.285999,65.5475638 456.817032,65.1737459 C459.060031,64.6538273 460.812873,64.2378923 462.144819,63.920742 C463.476766,63.6035916 464.441096,63.3280347 465.123053,63.1200673 C465.631526,62.9895732 466.102048,62.7457532 466.497622,62.4077787 C466.748234,62.2010869 466.922321,61.9197719 466.993106,61.607104 C467.26285,60.8675673 467.139102,60.0456186 466.662783,59.4130473 C466.094033,58.7621972 465.31349,58.3216946 464.451751,58.1652426 C463.269296,57.8637393 462.027295,57.8637393 460.844839,58.1652426 C459.370646,58.6136608 457.982655,59.2970537 456.737115,60.1877261 L452.283085,51.0735523 C453.274975,50.4749365 454.352209,50.0229069 455.479758,49.7321622 C456.794574,49.3794116 458.141991,49.1547476 459.502237,49.0614671 C460.973633,48.9635276 462.450758,48.9826545 463.918973,49.1186582 C465.47518,49.2725336 467.018602,49.5313789 468.538164,49.893337 C472.656544,50.9747677 475.608138,52.6489058 477.297046,54.8533608 C478.985955,57.0578159 479.428161,59.6782058 478.581043,62.6521405 C478.122736,64.5176933 477.068574,66.1927727 475.570843,67.435392 C474.892379,68.0038983 474.137789,68.4796566 473.327845,68.8495707 C472.493646,69.2453797 471.636146,69.5926007 470.759851,69.889408 C469.694294,70.2273551 468.602098,70.5653022 467.477935,70.8772534 C466.305402,71.1616472 465.15233,71.5176257 464.025528,71.9430866 L475.91715,75.0625985 L473.50899,84 L445,76.6743463 Z" id="Path" fill="#152747" fill-rule="nonzero"></path>
                    <path d="M496.370806,73.1449081 C498.159267,73.5791199 499.84258,74.3368905 501.328351,75.3766273 C504.102048,77.2530576 505.929124,80.1390786 506.372396,83.3441213 C506.601678,85.0519275 506.467477,86.7860323 505.977739,88.4437279 C505.479573,90.2199535 504.616012,91.8850974 503.436794,93.3432493 C502.3175,94.7211633 500.863215,95.82135 499.198283,96.5497424 C497.474473,97.346559 495.606834,97.8253334 493.694705,97.9605993 C488.770272,98.2635864 483.904053,96.8108868 480.049292,93.8870705 C478.140602,92.4277908 476.731318,90.4636971 476,88.2436427 L483.455239,83.4569898 C484.157071,84.7552009 485.115114,85.9134153 486.27731,86.8686985 C487.290109,87.7469192 488.50995,88.3820123 489.834632,88.7207689 C490.982557,89.0871388 492.236811,89.0059434 493.321673,88.4950317 C494.317703,87.9367971 495.01872,87.0050822 495.251709,85.9298373 C495.588827,84.9224016 495.48761,83.8288851 494.970584,82.892647 C494.460785,82.0091556 493.577518,81.3744419 492.543171,81.1483148 C491.804644,80.9611273 491.027285,80.9611273 490.288758,81.1483148 C489.612316,81.3089316 488.991767,81.6343205 488.488472,82.0923064 L479.584354,79.8246745 L490.645572,58 L510,63.0021292 L507.480681,71.9238755 L495.505804,68.922598 L493.75958,72.7703897 C493.960777,72.7653513 494.161962,72.7808312 494.359676,72.8165632 C494.640237,72.8275923 494.918183,72.8724148 495.186834,72.9499533 C495.522023,73.0217788 495.927492,73.0730826 496.381619,73.1551689 L496.370806,73.1449081 Z" id="Path" fill="#152747" fill-rule="nonzero"></path>
                    <path d="M442.379916,59.9919692 C441.926384,61.7233807 441.037814,63.3271763 439.78881,64.6686977 C438.596014,65.9530771 437.124795,66.9824908 435.473984,67.6877858 C433.755045,68.4299702 431.903792,68.8635122 430.015535,68.9660916 C427.969249,69.0859486 425.915955,68.8875566 423.938314,68.3789024 C422.002861,67.9059191 420.165318,67.1313352 418.501964,66.0873054 C416.900275,65.113006 415.513917,63.8566915 414.419177,62.3874935 C413.356234,60.9583173 412.613734,59.3405806 412.236903,57.6328195 C411.861284,55.8212601 411.933111,53.9527551 412.446843,52.1714399 C412.694151,51.2734303 413.101374,50.4213016 413.651237,49.6512028 C414.160595,48.9505903 414.762031,48.3133189 415.441255,47.7545296 C416.054072,47.1834514 416.754252,46.7017902 417.51856,46.3255292 C418.185549,45.9611462 418.881973,45.6466627 419.601389,45.3849872 C418.622337,44.462325 417.961916,43.2833749 417.706401,42.0021535 C417.374067,40.7246371 417.364606,39.3916519 417.678777,38.1100761 C418.114756,36.4291136 419.031892,34.8925661 420.330655,33.6671841 C421.573177,32.5234965 423.045685,31.6243166 424.662056,31.0222343 C426.282306,30.4039989 428.007926,30.0660095 429.755872,30.0245322 C433.113642,29.8435394 436.446071,30.6676039 439.275009,32.3784855 C440.764164,33.2392567 442.096125,34.3200967 443.219678,35.5794464 C444.332994,36.8336035 445.157032,38.2917041 445.639516,39.8612512 C446.120161,41.5251051 446.120161,43.2794422 445.639516,44.9432961 C445.256834,46.2315076 444.528142,47.4054215 443.523539,48.3521116 C442.602223,49.3248454 441.410007,50.0358156 440.081622,50.4046758 C440.561722,50.9793999 440.992183,51.5893192 441.368888,52.2285999 C441.791605,52.9442713 442.127056,53.7025474 442.368867,54.4890187 C442.592652,55.3424559 442.744136,56.2112393 442.821896,57.0872012 C442.80583,58.0520284 442.666716,59.0115557 442.40754,59.9452019 L442.379916,59.9919692 Z M431.728206,56.7182593 C432.077111,55.7201426 431.920337,54.626672 431.302801,53.7511348 C430.644821,52.8802425 429.655609,52.2810549 428.540428,52.0779053 C427.448054,51.748253 426.263391,51.8206792 425.22558,52.2805635 C423.297938,53.2881464 422.601017,55.5730889 423.667602,57.3885904 L423.667602,57.4145722 C423.684937,57.468512 423.724814,57.5135203 423.778097,57.5392849 C425.093467,59.3851294 427.657568,60.0313573 429.777971,59.0514272 C430.729374,58.5614219 431.412876,57.7124474 431.656384,56.7182593 L431.728206,56.7182593 Z M428.363636,41.1291642 C428.054684,41.9176826 428.19645,42.8000787 428.739319,43.4675285 C429.229317,44.0555378 429.907162,44.4799671 430.67298,44.6782815 C431.447901,44.8593913 432.263102,44.8140753 433.009947,44.5483724 C433.856012,44.2251913 434.461343,43.510054 434.606599,42.6620919 C434.796644,41.9654862 434.65985,41.2256688 434.230916,40.6303132 C433.7322,39.974829 432.994954,39.5143947 432.159136,39.3364183 C431.347235,39.1033986 430.471229,39.1722151 429.711674,39.5286838 C429.048493,39.8460223 428.558847,40.4122625 428.363636,41.0875933 L428.363636,41.1291642 Z" id="Shape" fill="#FFFFFF" fill-rule="nonzero"></path>
                    <path d="M443,73.67846 C443.417741,72.1172569 443.995027,70.5985853 444.723628,69.1440971 C445.345812,67.9536205 446.164131,66.8652476 447.147651,65.9201235 C448.13866,64.9942954 449.287594,64.2347495 450.545661,63.6737419 C452.029975,63.0539701 453.565448,62.5513443 455.13653,62.1709542 C457.440173,61.6509585 459.240407,61.2401618 460.608365,60.9229644 C461.976324,60.605767 462.966726,60.3301693 463.667121,60.122171 C464.193777,60.0026215 464.679659,59.7574337 465.078855,59.4097768 C465.336243,59.2030543 465.515037,58.9216977 465.587735,58.6089834 C465.864772,57.869337 465.737679,57.0472664 465.248482,56.4146013 C464.662382,55.7632903 463.858897,55.3227732 462.972198,55.1666116 C461.755915,54.8650881 460.478577,54.8650881 459.262294,55.1666116 C457.752546,55.6187958 456.329726,56.3001263 455.048981,57.184195 L450.474527,48.0738696 C451.493715,47.4760432 452.599933,47.0240042 453.757628,46.7322806 C455.107993,46.3794777 456.49184,46.1547805 457.888863,46.0614861 C459.409166,45.9635189 460.935319,45.9826478 462.452374,46.1186857 C464.068997,46.2711705 465.671282,46.5388549 467.245701,46.9194791 C471.47543,48.0010702 474.501355,49.6754565 476.235926,51.8802385 C477.970498,54.0850204 478.424661,56.705799 477.603885,59.6801746 C477.340243,60.669293 476.915616,61.6131991 476.345363,62.4777517 C475.822581,63.2089647 475.206914,63.8761266 474.512298,64.4641354 C473.816227,65.0325347 473.043326,65.5099588 472.214128,65.8837238 C471.353447,66.2752235 470.471204,66.62239 469.571231,66.9237153 C468.451596,67.2995127 467.311869,67.6188876 466.156806,67.8805074 C464.931115,68.1665051 463.820333,68.546102 462.605585,68.9204989 L474.824193,72.0404734 L472.33998,81 L443,73.67846 Z" id="Path" fill="#FFFFFF" fill-rule="nonzero"></path>
                    <path d="M494.190024,69.1306878 C495.963571,69.5807997 497.638975,70.328105 499.137926,71.3376741 C501.893317,73.2201455 503.709449,76.1050312 504.155819,79.3084876 C504.57376,82.8785642 503.52822,86.4644909 501.237688,89.3169141 C500.118547,90.6812228 498.690266,91.7866195 497.059699,92.5504057 C495.349629,93.3450569 493.497232,93.8239676 491.600317,93.9618505 C486.701796,94.25957 481.862658,92.8066512 478.027237,89.8866245 C476.127911,88.4264471 474.726248,86.4614568 474,84.2408455 L481.419161,79.4521984 C482.119564,80.7500577 483.073458,81.9085066 484.229612,82.8653284 C485.238974,83.7429385 486.45353,84.378159 487.772288,84.7181704 C488.915177,85.086984 490.165211,85.0056934 491.244972,84.4923393 C492.236638,83.9325367 492.936019,83.0013714 493.172447,81.9260761 C493.506523,80.9175431 493.403782,79.8235447 492.887094,78.8876205 C492.379395,78.0037609 491.499764,77.3687828 490.469675,77.1425615 C489.73846,76.9477523 488.966733,76.9371415 488.229929,77.1117663 C487.554967,77.2721154 486.936455,77.5996834 486.437055,78.0612837 L477.537292,75.8337673 L488.552969,54 L508,58.9272253 L505.480285,67.8988815 L493.506255,64.8655584 L491.767221,68.7200857 C491.967703,68.7096918 492.168739,68.7252306 492.364846,68.7662784 C492.638414,68.7815609 492.910269,68.8176027 493.177831,68.8740615 C493.521822,68.9516568 493.861453,69.0458748 494.195408,69.1563504 L494.190024,69.1306878 Z" id="Path" fill="#FFFFFF" fill-rule="nonzero"></path>
                    <path d="M509.569201,128.402863 C510.878336,124.790565 509.103987,120.768999 505.599079,119.404573 L505.551941,119.377632 C434.12118,91.9517053 352.869869,76.3043791 352.058037,76.1157922 C348.348198,75.4179627 344.790886,77.9461351 344.112556,81.7626234 C343.434227,85.5791118 345.891751,89.2386896 349.60159,89.9365194 L349.60159,89.9365194 C350.408184,90.1251063 430.460079,105.529964 500.838076,132.557163 C502.516102,133.204734 504.375474,133.139917 506.00704,132.376976 C507.638606,131.614035 508.908677,130.215485 509.537775,128.489074 L509.569201,128.402863 Z" id="Path" stroke="#152747" stroke-width="9.61" fill="#0B1B33" fill-rule="nonzero"></path>
                    <path d="M508.56208,124.406799 C509.197851,122.675578 509.139394,120.755293 508.399572,119.068438 C507.65975,117.381584 506.299174,116.066359 504.617193,115.412136 L504.590999,115.412136 C433.142969,87.964394 351.872014,72.3046213 351.059985,72.1158843 C347.34925,71.4174996 343.791077,73.9476831 343.112584,77.7672073 C342.434091,81.5867315 344.892209,85.2492204 348.602944,85.9476051 L348.602944,85.9476051 C349.409734,86.1363421 429.480982,101.553453 499.875995,128.602152 C503.395079,129.869577 507.253195,128.01091 508.56208,124.417584 L508.56208,124.406799 Z" id="Path" fill="#FFFFFF" fill-rule="nonzero"></path>
                    <mask id="mask-17" fill="white">
                        <use xlink:href="#path-16"></use>
                    </mask>
                    <g id="Path"></g>
                    <polygon id="Path" fill="#F76568" fill-rule="nonzero" mask="url(#mask-17)" points="347.455963 67 392 78.4566758 385.544037 103 341 91.5433242"></polygon>
                    <polygon id="Path" fill="#FBD13B" fill-rule="nonzero" mask="url(#mask-17)" points="426.437747 114 387 104.183821 393.5569 80 433 89.8161787"></polygon>
                    <polygon id="Path" fill="#26B1E0" fill-rule="nonzero" mask="url(#mask-17)" points="429.55919 89 469 98.8132167 462.451519 123 423 113.186783"></polygon>
                    <polygon id="Path" fill="#28CCBA" fill-rule="nonzero" mask="url(#mask-17)" points="503.601654 134 463 123.504692 469.408852 99 510 109.464025"></polygon>
                    <polygon id="Path" fill="#0B1B33" fill-rule="nonzero" mask="url(#mask-17)" points="453 88.5 445.517647 92 441 85"></polygon>
                    <polygon id="Path" fill="#FFFFFF" fill-rule="nonzero" mask="url(#mask-17)" points="451 86.5 443.517647 90 439 83"></polygon>
                </g>
            </g>
        </g>
    </g>
</svg>