<?xml version="1.0" encoding="UTF-8"?>
<svg width="855px" height="825px" viewBox="0 0 855 825" version="1.1" xmlns="http://www.w3.org/2000/svg" xmlns:xlink="http://www.w3.org/1999/xlink">
    <title>5-Desktop-BG-SVG</title>
    <defs>
        <linearGradient x1="41.6167724%" y1="12.6665901%" x2="80.4502211%" y2="119.969746%" id="linearGradient-1">
            <stop stop-color="#FDEFFF" offset="0%"></stop>
            <stop stop-color="#938B98" offset="100%"></stop>
        </linearGradient>
        <path d="M858,0 L858,836.497693 C424.472897,1029.56845 161.39196,1019.31725 68.7571888,805.744102 C-23.8775827,592.170952 -22.9090411,474.282184 71.6628134,452.077798 C139.312428,428.841751 144.216899,372.118459 86.3762261,281.907924 C28.535553,191.697388 33.5886794,97.7280802 101.535605,0 L858,0 Z" id="path-2"></path>
        <ellipse id="path-4" cx="76.0414123" cy="76.4952791" rx="76.0414123" ry="76.4952791"></ellipse>
        <path d="M105.254215,3.78131541 L100.379473,5.65754918 C99.542184,5.98028942 99.1232061,6.92054902 99.442893,7.76070619 L99.442893,7.76070619 L103.102853,17.3770051 C103.173506,17.5625399 103.209884,17.7592759 103.209888,17.9581115 L103.209888,17.9581115 L103.210193,32.5186191 C103.210205,33.0815199 102.920625,33.6038074 102.444275,33.9020508 L102.444275,33.9020508 L95.5599338,38.2083776 C94.9436867,38.5941338 94.6569093,39.3411616 94.8562801,40.0398909 L94.8562801,40.0398909 L99.5117621,56.3459088 C99.7559038,57.200767 99.2704729,58.0948169 98.4205917,58.3538455 L98.4205917,58.3538455 L90.2862144,60.8356193 C89.8672195,60.9630334 89.517478,61.2542782 89.3160315,61.6421434 L89.3160315,61.6421434 L84.4596322,70.9796138 C84.2910606,71.3016679 84.0210609,71.5593084 83.6909023,71.7105286 L83.6909023,71.7105286 L60.1685041,82.4576599 C59.5879287,82.7229952 59.2158094,83.3033914 59.2158228,83.9412056 L59.2158228,83.9412056 L59.2158993,87.5923595 C59.215915,88.3442942 58.7031988,88.9989006 57.9729295,89.1767172 L57.9729295,89.1767172 L37.8037891,94.0995757 C37.2693775,94.230488 36.8370977,94.621849 36.6538409,95.1420383 L36.6538409,95.1420383 L33.969338,102.756546 C33.7930756,103.255031 33.386677,103.637291 32.8802455,103.782207 L32.8802455,103.782207 L2.18518252,112.559035 C0.523191968,113.034385 0.641456911,115.433017 2.34263548,115.734807 L2.34263548,115.734807 C99.2377654,132.917216 379.266182,109.835056 421.551987,106.202292 L421.551987,106.202292 C423.160823,106.064401 423.605657,103.919927 422.187065,103.145558 L422.187065,103.145558 L414.977286,99.2093021 L405.711661,93.905658 C405.55847,93.8181391 405.39059,93.7558244 405.217814,93.7208145 L405.217814,93.7208145 L389.480507,90.6238298 C389.109073,90.5510089 388.77541,90.3507661 388.535477,90.0588088 L388.535477,90.0588088 L376.784358,75.740298 C376.544425,75.4483406 376.414311,75.0821723 376.414303,74.7048048 L376.414303,74.7048048 L376.414075,63.8248563 C376.414041,62.1886632 375.302513,60.759684 373.717449,60.3584789 L373.717449,60.3584789 L368.463513,59.0295307 C368.332706,58.9959219 368.198403,58.9798162 368.0634,58.9798134 L368.0634,58.9798134 L358.621615,58.9796153 C358.189327,58.9796063 357.775222,58.8073667 357.469536,58.5021056 L357.469536,58.5021056 C353.843277,54.8725796 351.003935,50.533843 349.129188,45.756148 L349.129188,45.756148 L347.412535,41.3831289 C346.517833,39.1028017 344.638253,37.3524488 342.302623,36.622169 L342.302623,36.622169 C338.986995,35.5852138 335.826644,34.1036822 332.908311,32.2188834 L332.908311,32.2188834 L320.58164,24.2588993 C320.506793,24.2105891 320.436143,24.1552777 320.36899,24.0950655 L320.36899,24.0950655 L313.377403,17.7335796 C310.29397,14.9267122 306.13964,13.6061886 302.003536,14.1157931 L302.003536,14.1157931 L278.178092,17.0502189 C274.874385,17.4569224 271.544092,17.6129805 268.216592,17.5155933 L268.216592,17.5155933 L217.270229,16.0295585 L177.398249,13.3318391 C177.186301,13.317132 176.974355,13.3451325 176.773601,13.4116402 L176.773601,13.4116402 L166.011244,17.0016574 C165.788106,17.0765662 165.550278,17.1017657 165.315947,17.0758561 L165.315947,17.0758561 L147.487173,15.092727 C146.696042,15.0051948 145.958085,15.5001679 145.739858,16.2654004 L145.739858,16.2654004 L145.111058,18.4686818 C145.0586,18.6521135 145.039018,18.8432474 145.052313,19.0336817 L145.052313,19.0336817 L145.552598,26.0335458 C145.567992,26.2470844 145.625355,26.455723 145.72049,26.6468592 L145.72049,26.6468592 L151.378244,37.9729063 C151.491567,38.1990491 151.55033,38.448295 151.550335,38.7017404 L151.550335,38.7017404 L151.550583,50.5065545 C151.550587,50.7144918 151.511419,50.9196277 151.43378,51.1121605 L151.43378,51.1121605 L150.320941,53.897236 C149.720106,55.4017928 147.531382,55.2029113 147.21098,53.6143201 L147.21098,53.6143201 L145.669832,45.9724192 C145.608969,45.665763 145.459971,45.3843094 145.242423,45.1595646 L145.242423,45.1595646 L141.90436,41.7134774 C141.817621,41.6245597 141.720389,41.5447434 141.615464,41.476829 L141.615464,41.476829 L134.917008,37.1674167 C134.451137,36.8670532 134.16923,36.3503547 134.169218,35.7958554 L134.169218,35.7958554 L134.169003,25.5145141 C134.169,25.352085 134.144514,25.1903555 134.097644,25.0342266 L134.097644,25.0342266 L129.89619,11.3690912 C129.848621,11.2136623 129.823436,11.0519329 129.823433,10.8888036 L129.823433,10.8888036 L129.823369,7.87266348 C129.823351,6.97230223 129.093762,6.24205615 128.194211,6.24203728 L128.194211,6.24203728 C127.293961,6.24201839 126.564403,6.97223386 126.564421,7.87259511 L126.564421,7.87259511 L126.564668,19.6599061 C126.564671,19.7747267 126.553481,19.889547 126.529001,20.0015665 L126.529001,20.0015665 L123.471108,34.288261 C123.366893,34.7727456 123.048631,35.1837125 122.605856,35.4049429 L122.605856,35.4049429 L122.405802,35.5057567 C121.322296,36.047631 120.047099,35.2592631 120.047074,34.0466459 L120.047074,34.0466459 L120.046839,22.8467401 C120.046828,22.3195457 119.793601,21.825952 119.364804,21.5192881 L119.364804,21.5192881 L113.125213,17.0586584 C112.697116,16.7526946 112.442489,16.2584007 112.442478,15.7319064 L112.442478,15.7319064 L112.442312,7.79318467 C112.442299,7.17567408 112.094638,6.6106656 111.542031,6.33410448 L111.542031,6.33410448 L106.567869,3.84505438 C106.339131,3.73092915 106.08941,3.67379281 105.838292,3.67379281 L105.838292,3.67379281 C105.641034,3.67379281 105.442378,3.70850632 105.254215,3.78131541 L105.254215,3.78131541 Z" id="path-6"></path>
        <path d="M18.435485,0 L15.322994,3.9763455 L11.9710413,6.03723523 C11.9710413,6.03723523 12.6894259,5.57332552 10.5344417,5.57332552 L10.5344417,5.57332552 C8.37979677,5.57332552 5.5067672,6.03723523 5.5067672,6.03723523 L5.5067672,6.03723523 L5.5067672,7.19742035 L5.26730567,9.05322354 L2.63373763,12.2207261 C2.63373763,12.2207261 2.15481457,11.6053021 1.19713805,13.229397 L1.19713805,13.229397 C0.239461528,14.8533274 0,17.1732047 0,17.1732047 L0,17.1732047 C0,17.1732047 45.2507669,26.6852436 102.232944,17.1732047 L102.232944,17.1732047 L102.232944,11.3732651 L97.9233148,9.51729758 L96.4867152,8.06443687 L96.0079617,5.57332552 C96.0079617,5.57332552 96.4867152,3.30734924 94.5713622,3.9763455 L94.5713622,3.9763455 C92.6560091,4.64534176 90.4862706,3.9763455 90.4862706,3.9763455 L90.4862706,3.9763455 L88.5858415,2.55733722 L87.3887035,0 L18.435485,0 Z" id="path-8"></path>
        <linearGradient x1="50%" y1="0.401277637%" x2="50%" y2="69.4228636%" id="linearGradient-10">
            <stop stop-color="#F0C7E8" offset="0%"></stop>
            <stop stop-color="#FDF5FF" offset="100%"></stop>
        </linearGradient>
        <radialGradient cx="50%" cy="157.010988%" fx="50%" fy="157.010988%" r="192.067861%" gradientTransform="translate(0.500000,1.570110),scale(0.113823,1.000000),rotate(90.000000),scale(1.000000,4.375246),translate(-0.500000,-1.570110)" id="radialGradient-11">
            <stop stop-color="#C992CF" offset="0.00527871622%"></stop>
            <stop stop-color="#DDBEE4" offset="44.6737753%"></stop>
            <stop stop-color="#F8F8FF" offset="100%"></stop>
        </radialGradient>
        <path d="M38.4262618,0 L31.9386973,8.16891508 L24.9520078,12.4027608 C24.9520078,12.4027608 26.4493828,11.449715 21.9576114,11.449715 L21.9576114,11.449715 C17.4665469,11.449715 11.4781074,12.4027608 11.4781074,12.4027608 L11.4781074,12.4027608 L11.4781074,14.7862191 L10.9789824,18.5987395 L5.48966796,25.1059858 C5.48966796,25.1059858 4.49141797,23.8416726 2.49527148,27.1781766 L2.49527148,27.1781766 C0.499124994,30.514343 0,35.2802468 0,35.2802468 L0,35.2802468 C0,35.2802468 94.3190704,54.8215665 213.09067,35.2802468 L213.09067,35.2802468 L213.09067,23.3649809 L204.107834,19.5521229 L201.113438,16.5673984 L200.115541,11.449715 C200.115541,11.449715 201.113438,6.79454415 197.121145,8.16891508 L197.121145,8.16891508 C193.128852,9.543286 188.606327,8.16891508 188.606327,8.16891508 L188.606327,8.16891508 L184.645141,5.25373627 L182.149869,0 L38.4262618,0 Z" id="path-12"></path>
        <linearGradient x1="50%" y1="0.401277637%" x2="50%" y2="69.4228636%" id="linearGradient-14">
            <stop stop-color="#F0C7E8" offset="0%"></stop>
            <stop stop-color="#FDF5FF" offset="100%"></stop>
        </linearGradient>
        <radialGradient cx="50%" cy="157.010988%" fx="50%" fy="157.010988%" r="192.067861%" gradientTransform="translate(0.500000,1.570110),scale(0.119032,1.000000),rotate(90.000000),scale(1.000000,4.375246),translate(-0.500000,-1.570110)" id="radialGradient-15">
            <stop stop-color="#C992CF" offset="0.00527871622%"></stop>
            <stop stop-color="#DDBEE4" offset="44.6737753%"></stop>
            <stop stop-color="#F8F8FF" offset="100%"></stop>
        </radialGradient>
        <path d="M40.742422,6.54262286e-14 L33.8638166,8.71009014 L26.4560013,13.22442 C26.4560013,13.22442 28.0436313,12.2082369 23.2811163,12.2082369 L23.2811163,12.2082369 C18.5193509,12.2082369 12.1699555,13.22442 12.1699555,13.22442 L12.1699555,13.22442 L12.1699555,15.7657779 L11.6407455,19.8308706 L5.82056016,26.7692095 C5.82056016,26.7692095 4.76214021,25.421138 2.64567509,28.978679 L2.64567509,28.978679 C0.529209977,32.5358601 0,37.617496 0,37.617496 L0,37.617496 C0,37.617496 100.004195,58.4533908 225.934806,37.617496 L225.934806,37.617496 L225.934806,24.9128664 L216.410526,20.8474137 L213.235641,17.664957 L212.177595,12.2082369 C212.177595,12.2082369 213.235641,7.24466976 209.00271,8.71009014 L209.00271,8.71009014 C204.76978,10.1755105 199.974658,8.71009014 199.974658,8.71009014 L199.974658,8.71009014 L195.77471,5.60178629 L193.129035,6.54262286e-14 L40.742422,6.54262286e-14 Z" id="path-16"></path>
        <linearGradient x1="50%" y1="0.401277637%" x2="50%" y2="69.4228636%" id="linearGradient-18">
            <stop stop-color="#F0C7E8" offset="0%"></stop>
            <stop stop-color="#FDF5FF" offset="100%"></stop>
        </linearGradient>
        <radialGradient cx="50%" cy="157.010988%" fx="50%" fy="157.010988%" r="192.067861%" gradientTransform="translate(0.500000,1.570110),scale(0.120697,1.000000),rotate(90.000000),scale(1.000000,4.375246),translate(-0.500000,-1.570110)" id="radialGradient-19">
            <stop stop-color="#C992CF" offset="0.00527871622%"></stop>
            <stop stop-color="#DDBEE4" offset="44.6737753%"></stop>
            <stop stop-color="#F8F8FF" offset="100%"></stop>
        </radialGradient>
    </defs>
    <g id="5-Desktop-BG-SVG" stroke="none" stroke-width="1" fill="none" fill-rule="evenodd">
        <rect fill="#FFFFFF" x="0" y="0" width="855" height="825"></rect>
        <g id="BG-Illustration" transform="translate(10.000000, 0.000000)">
            <mask id="mask-3" fill="white">
                <use xlink:href="#path-2"></use>
            </mask>
            <use id="Mask" fill="url(#linearGradient-1)" xlink:href="#path-2"></use>
            <g id="BG-Purple-Planet" mask="url(#mask-3)">
                <g transform="translate(590.632262, 286.241889)" id="Group-5">
                    <g transform="translate(93.248799, 93.569731) rotate(-15.000000) translate(-93.248799, -93.569731) translate(17.207387, 17.074452)">
                        <g id="Group-12-Copy-2" transform="translate(0.000000, 0.000000)">
                            <mask id="mask-5" fill="white">
                                <use xlink:href="#path-4"></use>
                            </mask>
                            <use id="Mask" fill="#F8B9FF" xlink:href="#path-4"></use>
                            <g id="Group-12" mask="url(#mask-5)">
                                <g transform="translate(-31.816055, -21.248689)">
                                    <path d="M47.0123738,22.9346473 C59.3758887,35.719309 72.9946063,42.6261754 91.4131822,40.5540434 C100.012027,39.5866536 106.401305,34.6452599 115.42778,37.242236 C153.669535,48.2446401 123.809247,47.5772647 156.55087,50.0246503 C161.656553,50.4062922 166.886158,51.0161648 171.910146,50.0246503 C176.562213,49.1065366 181.33539,41.3764889 184.99214,44.4115934 C190.303354,48.8199034 193.718803,59.1536408 189.563206,64.6767002 C182.745312,73.7381274 166.836248,62.4770369 159.564555,61.0432574 C148.736058,58.9081731 138.518166,69.604611 128.658292,65.3365715 C119.310579,61.2902306 110.805595,48.3210388 98.40386,51.6432028 C67.4817208,59.9265932 88.7608689,65.3674839 50.1766405,69.6651618 C42.3510109,70.5368142 23.5001407,77.5795666 26.5642803,70.2835319 L19.1424866,67.0609524 C81.9543545,-82.5006313 29.1384869,71.6050717 44.7330292,25.362476 L47.0123738,22.9346473 Z" id="Path-4-Copy" fill="#C992CF"></path>
                                    <path d="M20.1986174,91.8562824 C43.6415757,96.3244 57.8766271,85.736389 79.7029202,77.5134176 C94.8110809,71.8214765 105.08446,79.6755367 119.687369,81.4311446 C136.015654,83.3941826 128.43484,77.870274 142.148712,73.9961786 C153.521256,70.783496 169.303208,79.7807318 178.094287,81.2360882 C183.496391,82.1304027 189.297661,79.0067734 194.509693,80.6924206 C196.475117,81.3280673 191.91841,84.0297535 190.175844,85.1434399 C187.254518,87.0104805 184.191099,89.7099227 180.736676,89.4948559 C175.033909,89.1398109 170.175651,84.99755 164.645122,83.5539384 C162.933456,83.1071493 160.996964,83.2598568 159.352092,83.912925 C153.637861,86.1816616 148.170479,89.0827198 142.866551,92.2007436 C140.001888,93.8847952 138.206329,97.6561164 134.943508,98.262015 C129.485604,99.2755355 123.565136,98.6918521 118.361018,96.7513661 C110.718133,93.9015247 104.682096,87.7341052 97.3126625,84.2304103 C94.7414451,83.0079607 91.5060499,81.582939 88.9089973,82.7488123 C83.1672023,85.3264287 79.3919031,91.0633309 74.1871125,94.6119717 C70.6919384,96.9949912 66.4060017,98.0443176 62.9327194,100.459511 C58.5940499,103.476464 55.3200143,107.899259 50.9047931,110.801646 C45.2769266,114.501178 39.3527306,117.929951 32.9980142,120.137374 C30.1721256,121.118996 25.2694721,122.873801 24.029154,120.137374 C20.4521196,112.245613 22.1905514,102.889415 21.2712501,94.2654355 L20.1986174,91.8562824 Z" id="Path-5-Copy" fill="#FFA0F1"></path>
                                    <path d="M32.8721861,134.468441 C50.1108282,134.016816 62.7555056,134.895377 78.0712808,127.284558 C95.0503122,118.847223 111.372614,103.94178 131.735923,106.544261 C146.681598,108.454355 154.545902,123.091353 171.080918,121.418343 C177.936469,120.7247 188.402812,111.814422 191.473318,118.019383 C195.395032,125.944492 189.57936,138.944508 181.584469,142.644206 C173.784777,146.253574 165.704804,135.893691 157.375972,133.798194 C153.83466,132.907216 149.972668,132.933996 146.424804,133.798194 C142.801338,134.680808 140.09497,138.090672 136.453445,138.894559 C126.554251,141.079863 118.983152,132.265119 108.991983,135.68443 C75.9019083,147.008958 81.9948335,153.845937 51.327658,149.130866 C49.0818008,148.785566 45.8858432,151.139725 44.5143771,149.317622 L39.8257343,151.544169 C36.7120132,147.407342 36.6394649,141.673766 35.0463302,136.738565 L32.8721861,134.468441 Z" id="Path-6-Copy" fill="#C992CF"></path>
                                    <path d="M63.4999772,171.299852 C91.0872688,143.238548 132.26492,163.065039 165.521793,159.799829 C171.524515,159.210473 178.138774,151.38366 182.976828,155.006424 C186.8243,157.887433 176.68466,162.394672 172.840449,165.280082 C169.00054,168.162263 164.772479,170.756077 160.177194,172.119504 C141.554428,177.644901 123.875822,158.26832 104.315717,164.89827 C97.1452841,167.328706 92.7841332,174.98018 86.0582694,178.467134 C82.6978716,180.209298 78.5978561,180.636394 74.8451314,180.17699 C71.4970183,179.767117 68.0150666,178.368604 65.6328662,175.966678 C64.0336822,174.354252 64.5932375,171.532951 64.0734231,169.316088" id="Path-7-Copy" fill="#FFA0F1"></path>
                                    <path d="M162.799018,160.824879 L162.416469,161.13823 C147.327051,173.375486 128.136726,180.70129 107.24552,180.70129 C58.6613193,180.70129 19.2760429,141.080935 19.2760429,92.2067511 C19.2760429,71.9053762 26.0716108,53.2006647 37.4992889,38.2689873 C49.7163509,101.08183 99.7642722,150.26428 162.799018,160.824879 Z" id="Combined-Shape-Copy" fill-opacity="0.45" fill="#7544A5" transform="translate(91.037530, 109.485138) rotate(19.000000) translate(-91.037530, -109.485138) "></path>
                                </g>
                            </g>
                        </g>
                    </g>
                </g>
            </g>
            <g id="Ground" mask="url(#mask-3)" fill="#FDF5FF">
                <g transform="translate(-383.994690, 511.534741)">
                    <ellipse id="Oval" cx="751.342767" cy="63.0448629" rx="751.342767" ry="63.0448629"></ellipse>
                    <rect id="Rectangle" x="55.3135779" y="58.4318242" width="1445.32331" height="258.33017"></rect>
                </g>
            </g>
            <g id="Mountain" mask="url(#mask-3)">
                <g transform="translate(430.665479, 419.162265)">
                    <mask id="mask-7" fill="white">
                        <use xlink:href="#path-6"></use>
                    </mask>
                    <g id="Clip-2" stroke="none" fill="none" transform="translate(212.020524, 62.848585) rotate(1.000000) translate(-212.020524, -62.848585) "></g>
                    <polygon id="Fill-1" stroke="none" fill="#FDF5FF" fill-rule="evenodd" mask="url(#mask-7)" transform="translate(210.266029, 63.727486) rotate(1.000000) translate(-210.266029, -63.727486) " points="-7.75932847 147.442781 428.294896 147.451929 428.291387 -19.9878088 -7.76283693 -19.9969567"></polygon>
                    <path d="M386.059216,84.3816802 C383.242595,85.0452016 380.391024,85.9209632 377.529658,86.3853441 C376.283184,86.5877329 375.25481,86.0151848 374.127869,85.6109863 C372.993936,85.2048224 371.815964,84.9689744 370.608632,84.8556229 C368.198864,84.62892 365.882088,85.090692 363.661796,85.9520554 C362.50551,86.4014055 361.34643,86.9424646 360.108346,87.1664707 C358.645854,87.4317412 357.308486,87.0098515 355.899812,86.6901504 C350.536367,85.4729278 345.327475,86.8785872 339.978046,87.365188 C334.4126,87.8707812 328.777912,86.8828255 323.204063,86.7864141 C316.620728,86.6729498 310.042996,87.0488189 303.475051,87.4233781 C303.122011,87.4436777 302.834687,87.5550326 302.60469,87.7174838 C302.557151,87.7076569 302.512409,87.6932445 302.461376,87.6866928 C297.985789,87.1632023 293.492732,86.981 288.985701,87.1407412 C288.813725,87.1466332 288.66412,87.1820036 288.525002,87.2304754 C287.277126,87.2193132 286.029249,87.2081509 284.782072,87.1969886 C282.341548,87.1746652 279.889137,87.0901104 277.450713,87.2007652 C276.26296,87.2551106 275.073111,87.3690669 273.905634,87.5825935 C273.323294,87.6887018 272.741655,87.8472152 272.148827,87.8924022 C271.580468,87.9349695 271.068732,87.8484903 270.531827,87.6755419 C269.499264,87.3420924 268.544995,86.8664954 267.466994,86.655542 C266.321879,86.4314858 265.14531,86.3823313 263.977829,86.3914777 C261.240891,86.4130374 258.502557,86.5197555 255.767018,86.5878249 C254.644979,86.6159691 254.640819,88.2536306 255.767053,88.2254865 C258.209673,88.1646167 260.652992,88.1004716 263.095612,88.0441873 C264.212058,88.0180082 265.34738,87.9924844 266.456141,88.1438276 C267.58867,88.2977916 268.585581,88.7131235 269.639119,89.1042192 C270.768158,89.5241393 271.851051,89.6139059 273.047889,89.4174116 C274.243329,89.2209173 275.402416,88.9733272 276.617433,88.8868841 C279.011813,88.7166175 281.425075,88.8044468 283.823654,88.8261143 C284.470312,88.8313684 285.115573,88.8372775 285.761532,88.8431866 C285.913939,89.098665 286.197774,89.29126 286.517957,89.2703046 C286.95279,89.242146 287.386925,89.2146424 287.821758,89.1864837 C288.030794,89.5349825 288.418095,89.7812949 288.985756,89.7609998 C293.492787,89.6012586 297.985844,89.7834608 302.46143,90.3069514 C302.611036,90.3246413 302.742465,90.3161282 302.866903,90.2964789 C303.044473,90.3541283 303.245112,90.3849205 303.475113,90.371169 C309.364941,90.0352444 315.260362,89.6986648 321.16348,89.7145102 C326.896719,89.7303521 332.661437,90.6737661 338.382087,90.4243065 C343.815412,90.1872871 349.335388,88.2864052 354.763849,89.4656355 C357.312743,90.0192186 359.491818,90.5203888 362.052569,89.7173332 C364.550402,88.9332732 366.732936,87.7201393 369.447504,87.7418134 C372.238972,87.7647992 374.63689,89.6049261 377.386407,89.3757112 C380.552581,89.1117865 383.815211,87.9497703 386.895387,87.2240233 C388.857724,86.7615888 388.026446,83.9179357 386.059216,84.3816802" id="Fill-3" stroke="none" fill="#F0C7E8" fill-rule="evenodd" mask="url(#mask-7)" transform="translate(321.469649, 87.398513) rotate(1.000000) translate(-321.469649, -87.398513) "></path>
                    <path d="M44.5212579,84.3720177 C46.6711088,84.9411748 48.8475478,85.6914469 51.031675,86.0897974 C51.9824209,86.2635695 52.7666506,85.7725153 53.6271386,85.4265015 C54.4932233,85.0782791 55.3914921,84.8765688 56.31215,84.7786684 C58.1513671,84.5850765 59.9199379,84.9804733 61.6143595,85.7189555 C62.4965501,86.1040265 63.3808411,86.5678749 64.3266903,86.7600529 C65.4418409,86.9868375 66.4625346,86.6261024 67.5370985,86.3515082 C71.6310751,85.3083449 75.6061686,86.514386 79.6889824,86.9311823 C83.9362001,87.3641794 88.2358602,86.5183322 92.4893634,86.4359628 C97.5138141,86.3381485 102.534076,86.6607261 107.546642,86.9825672 C107.815985,86.9995063 108.034958,87.0944856 108.210558,87.2343745 C108.246937,87.2255404 108.281216,87.2130251 108.319694,87.2078722 C111.735081,86.759575 115.164466,86.6035645 118.604351,86.7405769 C118.734475,86.7457333 118.849208,86.7759214 118.954847,86.817153 C119.907688,86.8076019 120.859829,86.7980508 121.81197,86.7884996 C123.674977,86.7693965 125.545678,86.6972845 127.407288,86.7922982 C128.313258,86.8387002 129.220628,86.9366389 130.112608,87.1192446 C130.55615,87.2105474 131.000392,87.3467608 131.453027,87.3850546 C131.886774,87.4218756 132.277143,87.3475238 132.6864,87.1988123 C133.474832,86.9139048 134.202396,86.5060442 135.025809,86.3249469 C135.900293,86.1335434 136.797865,86.0908605 137.689142,86.0989778 C139.776718,86.1181638 141.866394,86.2095011 143.954671,86.2677077 C144.810969,86.2912853 144.814496,87.6952911 143.9547,87.6709772 C142.090293,87.6194014 140.226585,87.5641445 138.362177,87.5155137 C137.510077,87.4934087 136.643285,87.4713033 135.797484,87.6001272 C134.932794,87.7326319 134.172347,88.0889551 133.368526,88.4239265 C132.506639,88.7831926 131.680425,88.8604802 130.766757,88.6918626 C129.855189,88.523245 128.970203,88.3119261 128.043246,88.2375466 C126.215215,88.0909969 124.373896,88.1660546 122.543071,88.1851583 C122.04986,88.1895654 121.55665,88.1947087 121.064139,88.1998521 C120.948011,88.4185123 120.731842,88.5834251 120.486985,88.5657502 C120.154679,88.5421836 119.823773,88.5178808 119.492167,88.4943143 C119.332667,88.7924873 119.037444,89.0037814 118.604398,88.9861026 C115.164513,88.8490902 111.735128,89.0051007 108.319741,89.4533979 C108.205708,89.4688565 108.104967,89.461492 108.010522,89.4445566 C107.874803,89.4938817 107.722293,89.520383 107.546695,89.5093358 C103.051126,89.2206362 98.5520594,88.9312003 94.0474021,88.9450943 C89.6714693,88.9582548 85.2724667,89.767288 80.9070229,89.5529512 C76.7598513,89.3496625 72.5482877,87.7202796 68.4053391,88.7310474 C66.4597903,89.2051438 64.7961751,89.6343356 62.8422069,88.9459122 C60.9365107,88.2744232 59.270766,87.234084 57.1985819,87.2531827 C55.0683319,87.271544 53.2389381,88.8499998 51.1408647,88.652644 C48.7237778,88.4265682 46.2339174,87.4303861 43.8832833,86.8082157 C42.3854536,86.4120883 43.0199303,83.9744178 44.5212579,84.3720177" id="Fill-4" stroke="none" fill="#F0C7E8" fill-rule="evenodd" mask="url(#mask-7)" transform="translate(93.813306, 86.958708) rotate(1.000000) translate(-93.813306, -86.958708) "></path>
                    <path d="M32.537566,93.971133 L32.5377241,101.514722 C32.5377241,101.514722 50.888654,96.745263 61.9244197,101.515339 C72.9608812,106.286127 92.0813321,101.293787 100.422983,102.29308 C108.764634,103.290949 131.73485,100.62949 131.73485,100.62949 C131.73485,100.62949 137.509736,98.9653641 142.385753,100.629713 C147.262465,102.294063 163.861439,97.6349466 163.861439,97.6349466 C163.861439,97.6349466 153.550786,98.4109516 149.186912,99.2988857 C144.82443,100.186108 141.744135,95.1940143 134.30147,96.4137362 C126.858109,97.6341703 132.633051,98.6241517 119.287421,98.7947828 C105.941094,98.9647018 114.410698,96.6355034 105.171534,97.3004387 C95.9309779,97.966086 92.5948223,101.738167 77.3239591,100.628348 C62.053096,99.5185301 71.4209365,96.8560738 57.433059,94.7485887 C43.4451815,92.6403915 49.7336929,97.8540246 40.7505269,96.3006814 C31.7680566,94.7480503 32.537566,93.971133 32.537566,93.971133" id="Fill-5" stroke="none" fill="#F0C7E8" fill-rule="evenodd" mask="url(#mask-7)" transform="translate(98.191270, 98.793210) rotate(1.000000) translate(-98.191270, -98.793210) "></path>
                    <path d="M385.289622,80.8236655 L385.388561,76.4370604 C385.388561,76.4370604 373.341799,78.986392 366.197616,76.076881 C359.053433,73.1680057 346.50176,75.8368285 341.067637,75.1540285 C335.633515,74.4712285 320.597689,75.7377596 320.597689,75.7377596 C320.597689,75.7377596 316.805269,76.6352151 313.642558,75.6073059 C310.479847,74.5800323 299.579603,77.0861639 299.579603,77.0861639 C299.579603,77.0861639 306.322716,76.7608535 309.183424,76.2981618 C312.044829,75.83547 313.990625,78.7766544 318.866803,78.1582711 C323.742982,77.5392522 319.984702,76.8927193 328.702151,76.9571026 C337.420297,77.021486 331.859289,78.2723247 337.90152,77.9991228 C343.943752,77.7246496 346.171886,75.572392 356.12932,76.4046642 C366.088149,77.2363008 359.935754,78.6701937 369.04168,80.0675391 C378.149,81.464249 374.111014,78.3552097 379.956606,79.3685553 C385.802199,80.3819009 385.289622,80.8236655 385.289622,80.8236655" id="Fill-6" stroke="none" fill="#EDEDFF" fill-rule="evenodd" mask="url(#mask-7)" transform="translate(342.484082, 77.755077) rotate(1.000000) translate(-342.484082, -77.755077) "></path>
                    <path d="M162.356739,10.4040582 L165.612562,25.2032659 L162.357162,30.5843779 L163.985807,40.0023711 C163.985807,40.0023711 158.199434,57.2071605 147.907745,52.9771896 L149.987088,46.055816 L144.963093,32.0249029 L140.219879,14.1030213 L147.056515,3.67672579 L162.356739,10.4040582 Z" id="Fill-7" stroke="none" fill="#F0C7E8" fill-rule="evenodd" mask="url(#mask-7)" transform="translate(152.916220, 28.661584) rotate(1.000000) translate(-152.916220, -28.661584) "></path>
                    <path d="M125.930136,2.6599621 L125.930401,15.275368 L121.016804,34.481977 C121.016804,34.481977 120.35096,39.3448415 123.473538,38.6810497 C126.596116,38.0172579 128.093997,31.2108115 128.093997,31.2108115 L130.588791,29.8831491 L130.588791,26.0650876 L128.592278,25.5669763 L128.758344,22.4134811 L130.58862,21.7496621 L130.588547,18.263882 L129.922529,14.7773824 L129.257252,12.9515844 L128.758084,9.96386313 L129.257134,7.30773875 L129.568153,5.49677632 L130.588168,0.170418421 L125.098765,2.65994465 L125.930136,2.6599621 Z" id="Fill-8" stroke="none" fill="#F0C7E8" fill-rule="evenodd" mask="url(#mask-7)" transform="translate(125.773040, 19.456864) rotate(1.000000) translate(-125.773040, -19.456864) "></path>
                    <polygon id="Fill-9" stroke="none" fill="#F0C7E8" fill-rule="evenodd" mask="url(#mask-7)" transform="translate(103.007423, 15.950333) rotate(1.000000) translate(-103.007423, -15.950333) " points="105.33646 0.170732268 103.506101 7.02406009 105.33674 13.559759 110.3278 19.7757862 108.497438 26.4699225 106.168529 28.8611342 111.325651 30.7735734 108.165244 31.7300113 103.506618 31.7299135 94.6891946 29.6575286 96.1869519 8.61785442 101.676162 0.17065548"></polygon>
                    <polygon id="Fill-10" stroke="none" fill="#F0C7E8" fill-rule="evenodd" mask="url(#mask-7)" transform="translate(97.753446, 45.318057) rotate(1.000000) translate(-97.753446, -45.318057) " points="97.4242746 33.4832304 99.0439135 39.5357213 103.006595 43.1341868 104.320561 46.7332919 103.663394 52.8072864 97.4247706 57.1528835 93.4230153 53.6030816 91.1863296 36.9181087"></polygon>
                    <polygon id="Fill-11" stroke="none" fill="#F0C7E8" fill-rule="evenodd" mask="url(#mask-7)" transform="translate(85.495149, 62.851281) rotate(1.000000) translate(-85.495149, -62.851281) " points="89.2356264 56.2764759 92.0620773 61.3195188 91.3980068 67.0776873 85.9114134 69.4260857 78.928221 69.4259392"></polygon>
                    <polygon id="Fill-12" stroke="none" fill="#F0C7E8" fill-rule="evenodd" mask="url(#mask-7)" transform="translate(60.102578, 78.631146) rotate(1.000000) translate(-60.102578, -78.631146) " points="71.0475007 70.3029958 66.3093393 85.5277978 64.5132596 86.9592955 57.4891825 86.1175312 49.1576544 79.7240705 62.8793336 73.6678623"></polygon>
                    <polygon id="Fill-13" stroke="none" fill="#F0C7E8" fill-rule="evenodd" mask="url(#mask-7)" transform="translate(36.461300, 91.780800) rotate(1.000000) translate(-36.461300, -91.780800) " points="42.1527315 87.1295189 40.8734685 95.7563508 36.4535043 98.3557568 30.7701139 96.9180754 30.7698685 85.2058442"></polygon>
                    <path d="M261.928791,39.3448622 L259.080271,37.8053128 L253.755922,37.1541622 L248.802099,36.1137231 C248.802099,36.1137231 245.581683,36.6334545 244.962727,36.8937096 C244.343069,37.1539647 237.242542,36.7637823 237.242542,36.7637823 L230.349769,37.7287679 C230.349769,37.7287679 225.272444,37.1535647 224.899804,37.1535568 C224.528567,37.1535491 218.212641,37.7285132 218.212641,37.7285132 L213.267289,39.0186905 L206.425724,39.018547 L205.890273,39.0185357 L212.082733,40.6340975 C212.082733,40.6340975 218.398683,41.2085894 218.770622,41.2085972 C219.141859,41.208605 224.219861,40.6343521 224.219861,40.6343521 L231.112675,41.5996269 C231.112675,41.5996269 238.213185,41.209005 238.832854,41.4692862 C239.451821,41.7295673 242.672259,42.250171 242.672259,42.250171 L247.625336,41.2092025 L252.95036,40.5590126 L255.196703,39.3447209 L261.928791,39.3448622 Z" id="Fill-14" stroke="none" fill="#F0C7E8" fill-rule="evenodd" mask="url(#mask-7)" transform="translate(233.909532, 39.181947) rotate(1.000000) translate(-233.909532, -39.181947) "></path>
                    <path d="M255.799571,30.4841847 L257.045699,29.8245996 L259.375168,29.5453918 L261.542512,29.1000406 C261.542512,29.1000406 262.951468,29.3227685 263.222819,29.4344768 C263.492795,29.5454782 266.599904,29.3786963 266.599904,29.3786963 L269.615658,29.7923422 C269.615658,29.7923422 271.837276,29.5456532 271.999398,29.5456566 C272.162207,29.54566 274.925845,29.7924536 274.925845,29.7924536 L277.089088,30.3453565 L280.082851,30.3454193 L280.316417,30.3454242 L277.607755,31.0374997 C277.607755,31.0374997 274.844815,31.2841773 274.681319,31.2841739 C274.519197,31.2841705 272.298256,31.0373883 272.298256,31.0373883 L269.281832,31.4509076 C269.281832,31.4509076 266.175403,31.2839955 265.904057,31.3956924 C265.633398,31.5066824 264.225139,31.7300582 264.225139,31.7300582 L262.057089,31.2839091 L259.727608,31.0046036 L258.74456,30.4842465 L255.799571,30.4841847 Z" id="Fill-15" stroke="none" fill="#F0C7E8" fill-rule="evenodd" mask="url(#mask-7)" transform="translate(268.057994, 30.415049) rotate(1.000000) translate(-268.057994, -30.415049) "></path>
                    <path d="M235.66074,89.0812494 L234.414612,89.7415415 L232.085143,90.0200423 L229.917799,90.4661005 C229.917799,90.4661005 228.508844,90.2433726 228.237493,90.1316642 C227.966829,90.0199559 224.860408,90.1867377 224.860408,90.1867377 L221.844653,89.7730918 C221.844653,89.7730918 219.623036,90.0197808 219.460226,90.0197774 C219.298104,90.019774 216.534467,89.7729804 216.534467,89.7729804 L214.371224,89.2200776 L211.37746,89.2200148 L211.143894,89.2200099 L213.852556,88.5279344 C213.852556,88.5279344 216.615496,88.2819637 216.778992,88.2819671 C216.941115,88.2819705 219.162055,88.5280458 219.162055,88.5280458 L222.17848,88.1145264 C222.17848,88.1145264 225.284908,88.2821456 225.555567,88.1704486 C225.826913,88.0587516 227.235173,87.8360828 227.235173,87.8360828 L229.403222,88.282232 L231.732703,88.5608305 L232.715751,89.0811876 L235.66074,89.0812494 Z" id="Fill-16" stroke="none" fill="#F0C7E8" fill-rule="evenodd" mask="url(#mask-7)" transform="translate(223.402317, 89.151092) rotate(1.000000) translate(-223.402317, -89.151092) "></path>
                    <path d="M132.339769,89.3129708 L135.188224,87.7735409 L140.513248,87.1226137 L145.467027,86.0823825 C145.467027,86.0823825 148.686763,86.602249 149.306432,86.8625301 C149.9254,87.1228112 157.026611,86.7329266 157.026611,86.7329266 L163.919425,87.6982014 C163.919425,87.6982014 168.996726,87.1232113 169.368664,87.1232191 C169.739901,87.1232269 176.055851,87.698456 176.055851,87.698456 L181.001258,88.9888408 L187.842822,88.9889843 L188.378274,88.9889956 L182.185881,90.6042975 C182.185881,90.6042975 175.869955,91.1785244 175.498718,91.1785166 C175.127481,91.1785088 170.049455,90.6040429 170.049455,90.6040429 L163.156681,91.5690285 C163.156681,91.5690285 156.055454,91.1781087 155.436497,91.4383638 C154.816839,91.6986189 151.597125,92.2190876 151.597125,92.2190876 L146.644004,91.1779112 L141.318251,90.5274979 L139.071857,89.313112 L132.339769,89.3129708 Z" id="Fill-17" stroke="none" fill="#F0C7E8" fill-rule="evenodd" mask="url(#mask-7)" transform="translate(160.359021, 89.150735) rotate(1.000000) translate(-160.359021, -89.150735) "></path>
                </g>
            </g>
            <g id="Crater-3" mask="url(#mask-3)">
                <g transform="translate(517.250914, 602.978528)">
                    <g id="Group-7" transform="translate(0.000000, 3.759935)">
                        <mask id="mask-9" fill="white">
                            <use xlink:href="#path-8"></use>
                        </mask>
                        <g id="Clip-2"></g>
                        <polygon id="Fill-1" fill="url(#linearGradient-10)" mask="url(#mask-9)" points="-12.6892563 28.1931556 108.218465 28.1931556 108.218465 -8.81050492 -12.6892563 -8.81050492"></polygon>
                    </g>
                    <g id="Group-24" transform="translate(17.362877, -0.000000)">
                        <path d="M0,3.89221957 C0,6.04185551 15.3103349,7.78459777 34.1961484,7.78459777 C53.08213,7.78459777 68.3922967,6.04185551 68.3922967,3.89221957 C68.3922967,1.74258363 53.08213,0 34.1961484,0 C15.3103349,0 0,1.74258363 0,3.89221957" id="Fill-8" fill="url(#radialGradient-11)"></path>
                    </g>
                </g>
            </g>
            <g id="Crater-2" mask="url(#mask-3)">
                <g transform="translate(546.819974, 698.935185)">
                    <g id="Group-7" transform="translate(0.000000, 7.891204)">
                        <mask id="mask-13" fill="white">
                            <use xlink:href="#path-12"></use>
                        </mask>
                        <g id="Clip-2"></g>
                        <polygon id="Fill-1" fill="url(#linearGradient-14)" mask="url(#mask-13)" points="-26.4490293 57.9193871 225.566674 57.9193871 225.566674 -18.1001039 -26.4490293 -18.1001039"></polygon>
                    </g>
                    <g id="Group-24" transform="translate(38.333771, 0.000000)">
                        <path d="M0,8.45468882 C0,13.1241332 31.8017251,16.9097222 71.0302234,16.9097222 C110.259071,16.9097222 142.060447,13.1241332 142.060447,8.45468882 C142.060447,3.7852444 110.259071,0 71.0302234,0 C31.8017251,0 0,3.7852444 0,8.45468882" id="Fill-8" fill="url(#radialGradient-15)"></path>
                    </g>
                </g>
            </g>
            <g id="Crater-1" mask="url(#mask-3)">
                <g transform="translate(-10.979026, 615.071833)">
                    <g id="Group-7" transform="translate(0.000000, 9.383742)">
                        <mask id="mask-17" fill="white">
                            <use xlink:href="#path-16"></use>
                        </mask>
                        <g id="Clip-2"></g>
                        <polygon id="Fill-1" fill="url(#linearGradient-18)" mask="url(#mask-17)" points="-28.0432565 61.7564361 239.162807 61.7564361 239.162807 -19.2992013 -28.0432565 -19.2992013"></polygon>
                    </g>
                    <g id="Group-24" transform="translate(39.870712, 0.000000)">
                        <path d="M0,9.22588949 C0,14.3212607 34.2239265,18.452155 76.4402917,18.452155 C118.657033,18.452155 152.880583,14.3212607 152.880583,9.22588949 C152.880583,4.13051826 118.657033,0 76.4402917,0 C34.2239265,0 0,4.13051826 0,9.22588949" id="Fill-8" fill="url(#radialGradient-19)"></path>
                    </g>
                </g>
            </g>
        </g>
        <g id="Group" transform="translate(125.105491, 103.642615)" fill="#FFFFFF">
            <ellipse id="Star-2" cx="11.3858382" cy="24.5646755" rx="3.35115607" ry="3.34972848"></ellipse>
            <ellipse id="Star-2-Copy-2" cx="183.41185" cy="295.71063" rx="3.35115607" ry="3.34972848"></ellipse>
            <ellipse id="Star-2-Copy" cx="653.690751" cy="319.931007" rx="3.35115607" ry="3.34972848"></ellipse>
            <ellipse id="Star-2-Copy-3" opacity="0.323946221" cx="431.690751" cy="221.931007" rx="3.35115607" ry="3.34972848"></ellipse>
            <path d="M607.891405,120.590225 L606.734524,118.201921 C606.409658,117.531983 605.885006,116.978965 605.232286,116.619674 L602.306358,115.007131 L605.149042,113.532843 C605.853843,113.167578 606.417342,112.580422 606.753307,111.861413 L607.891405,109.424464 L609.02993,111.861413 C609.365895,112.580422 609.929394,113.167578 610.634195,113.532843 L613.476879,115.007131 L610.550524,116.619674 C609.898231,116.978965 609.373579,117.531983 609.048713,118.201921 L607.891405,120.590225 Z" id="Star-1"></path>
            <path d="M299.585047,11.1657616 L298.428165,8.77745696 C298.1033,8.10751979 297.578648,7.5545016 296.925928,7.19521046 L294,5.58266745 L296.842683,4.10837898 C297.547484,3.74311388 298.110984,3.15595876 298.446949,2.43694977 L299.585047,-2.66453526e-14 L300.723571,2.43694977 C301.059537,3.15595876 301.623036,3.74311388 302.327837,4.10837898 L305.17052,5.58266745 L302.244166,7.19521046 C301.591873,7.5545016 301.067221,8.10751979 300.742355,8.77745696 L299.585047,11.1657616 Z" id="Star-1-Copy"></path>
            <path d="M5.58504667,383.165762 L4.42816549,380.777457 C4.10329959,380.10752 3.57864758,379.554502 2.92592753,379.19521 L1.4033219e-13,377.582667 L2.84268331,376.108379 C3.54748436,375.743114 4.11098368,375.155959 4.4469488,374.43695 L5.58504667,372 L6.72357143,374.43695 C7.05953656,375.155959 7.62303588,375.743114 8.32783692,376.108379 L11.1705202,377.582667 L8.24416581,379.19521 C7.59187266,379.554502 7.06722064,380.10752 6.74235474,380.777457 L5.58504667,383.165762 Z" id="Star-1-Copy-2" opacity="0.486078307"></path>
        </g>
    </g>
</svg>