<svg xmlns="http://www.w3.org/2000/svg" width="128" height="112" viewBox="0 0 128 112"><g><g><g><g><g><path fill="#fff" d="M106.5 21c5.799 0 10.5-4.701 10.5-10.5S112.299 0 106.5 0 96 4.701 96 10.5 100.701 21 106.5 21z"/></g><g opacity=".67"><path fill="#d0d0d0" d="M96 10.847c0-2.439.86-4.677 2.293-6.427 1.27 7.276 7.01 13.015 14.286 14.286a10.11 10.11 0 0 1-6.427 2.293C100.545 20.999 96 16.454 96 10.847z"/></g></g><g opacity=".57"><path fill="#e0e0e0" d="M106.498 6.636a1.658 1.658 0 1 0 0-3.316 1.658 1.658 0 0 0 0 3.316z"/></g><g opacity=".57"><path fill="#e0e0e0" d="M109.818 13.266a1.658 1.658 0 1 0 0-3.316 1.658 1.658 0 0 0 0 3.316z"/></g></g><g><g><g><path fill="#8390fa" d="M64.378 112c21.952 0 39.748-17.909 39.748-40S86.33 32 64.378 32C42.426 32 24.63 49.909 24.63 72s17.796 40 39.748 40z"/></g><g opacity=".32"><path fill="#6b78e0" d="M24.63 71.292c0-9.78 3.427-18.753 9.138-25.772C38.83 74.694 61.7 97.709 90.69 102.803c-6.975 5.747-15.892 9.196-25.61 9.196-22.34 0-40.45-18.225-40.45-40.707z"/></g><g opacity=".38"><path fill="#d8d8d8" d="M24.403 73.048V78.7S1.804 93.29 28.723 93.29c26.92 0 58.496-6.603 75.15-16.73 16.655-10.128 13.157-15.1-1.309-16.183-14.465-1.083-1.63-4.717-1.63-4.717s57.78 3.425 4.521 25.329C52.197 102.893 5.79 95.472 5.79 95.472s-10.698-5.389-1.626-11.08c9.073-5.69 20.24-11.344 20.24-11.344z"/></g></g><g opacity=".57"><path fill="#6a77e2" d="M72.22 51.154c1.545 0 2.798-1.261 2.798-2.817a2.808 2.808 0 0 0-2.799-2.817 2.808 2.808 0 0 0-2.799 2.817 2.808 2.808 0 0 0 2.8 2.817z"/></g><g opacity=".57"><path fill="#6a77e2" d="M59.9 69.184c1.545 0 2.798-1.261 2.798-2.817A2.808 2.808 0 0 0 59.9 63.55a2.808 2.808 0 0 0-2.799 2.817 2.808 2.808 0 0 0 2.8 2.817z"/></g><g opacity=".57"><path fill="#6a77e2" d="M81.179 61.297c2.164 0 3.919-1.765 3.919-3.943s-1.755-3.944-3.92-3.944c-2.163 0-3.918 1.766-3.918 3.944s1.755 3.943 3.919 3.943z"/></g></g></g></g></svg>