<svg xmlns="http://www.w3.org/2000/svg" xmlns:xlink="http://www.w3.org/1999/xlink" width="770" height="481" xmlns:v="https://vecta.io/nano"><defs><linearGradient x1="47.5730566%" y1="53.0672508%" x2="66.8465196%" y2="75.9152728%" id="A"><stop stop-color="#ffefbb" offset="0%"/><stop stop-color="#dfcbaa" offset="100%"/></linearGradient><path d="M165.297 0a1.61 1.61 0 0 0-.566.103h0l-9.476 3.567c-.2.075-.41.1-.622.102h0l-14.805-.507c-.1-.003-.2-.016-.298-.04h0L125.38.04a1.61 1.61 0 0 0-.353-.04h0-8.337a1.61 1.61 0 0 0-.632.13h0l-7.56 3.234a1.62 1.62 0 0 0-.982 1.492h0v.55a1.65 1.65 0 0 1-.87 1.438h0c-.646.358-1.378 1.117-1.142 2.692h0c.402 2.686-2.1 1.474-.045 5.514h0c2.055 4.04 1.653 10.745 1.25 15.065h0c-.39 4.18-5.297 38.74-5.612 40.96h0a1.6 1.6 0 0 0-.016.227h0v12.405s0 9.587-4.02 4.592h0c-3.153-3.918-6.06-8.24-7.166-9.924h0a1.61 1.61 0 0 0-1.346-.726h0-4.036a1.61 1.61 0 0 0-1.2.537h0l-3.06 3.414a1.63 1.63 0 0 0-.144.185h0l-3.15 4.75c-.804 1.212-2 1.743-2.412 4.9h0c-.402 3.168 2.814-.064 0 5.59h0c-2.814 5.654-7.638 11.712-7.638 11.712h0c-2 2.827-6.834 6.058-8.443 7.27h0c-1.48 1.114-17.928 8.382-20.553 9.538h0a1.6 1.6 0 0 0-.597.456h0l-12.393 15.173a1.62 1.62 0 0 0-.314.619h0c-.29 1.125-1.248 4.7-1.923 5.717h0c-.722 1.088-2.74 3.153-3.145 3.563h0c-.045.045-.09.087-.142.127h0c-.33.266-1.784 1.503-3.548 3.983h0c-2 2.827-5.34 4.846-4.88 8.48h0c.46 3.635 0 6.058 0 6.058h0l-.725 4.23a1.62 1.62 0 0 1-.59.997h0c-1.7 1.345-7.247 5.863-6.428 6.89h0a1.63 1.63 0 0 1-.198 2.233h0L.554 186.26c-1.064.936-.504 2.696.904 2.834h0c24.18 2.377 164.14 14.477 335.106-4.94h0c1.173-.133 1.813-1.447 1.197-2.46h0l-2.865-4.71c-.155-.255-.237-.547-.237-.846h0v-6.1a1.62 1.62 0 0 0-1.199-1.567h0c-2.035-.54-6.058-1.568-7.243-1.568h0c-1.608 0-6.03.808-7.237 0h0c-1.02-.682-2.324-3.956-2.705-4.96h0a1.62 1.62 0 0 0-.329-.528h0l-7.138-7.658a1.6 1.6 0 0 0-.675-.433h0l-26.377-8.313a1.59 1.59 0 0 1-.316-.138h0l-5.572-3.185c-.65-.372-.962-1.145-.75-1.867h0l1.314-4.49c.2-.68-.065-1.414-.654-1.807h0l-16.467-11.028a1.62 1.62 0 0 1-.711-1.19h0l-7.5-76.29a1.63 1.63 0 0 0-.425-.946h0l-5.048-5.443a1.62 1.62 0 0 0-.487-.359h0l-9.773-4.678s-8.04-4.165-10.453-3.48h0c-2.157.613-5.922-4.75-6.694-5.892h0a1.62 1.62 0 0 1-.21-.442h0l-1.87-6.183a1.64 1.64 0 0 1-.07-.472h0V7.853a1.62 1.62 0 0 0-1.281-1.587h0L189.257.855a1.64 1.64 0 0 0-.264-.033h0L169.83 0h-4.532z" id="B"/><linearGradient x1="43.305704%" y1="77.3957157%" x2="63.5348523%" y2="50%" id="C"><stop stop-color="#fff" offset="0%"/><stop stop-color="#ec9f18" offset="100%"/></linearGradient></defs><g fill="none" fill-rule="evenodd"><path d="M213.066-142.672c-.01 0-9.132 33.868-21.107 48.738-64.426 80.003-61.492 135.233 1.448 256.03 62.98 120.873-64.77 63.408-20.59 220.868s-22.572 128.755-22.572 242.362c0 .07 158.233.07 474.7 0V-143.5l-411.878.828z" fill="url(#A)" transform="matrix(0 1 1 0 143.985485 -143.985485)"/><ellipse cx="162.045" cy="82.751" rx="15.731" ry="15.739" fill="#fff"/><path d="M171.153 95.053l-.182.147a15.14 15.14 0 0 1-9.448 3.291c-8.4 0-15.2-6.813-15.2-15.217a15.16 15.16 0 0 1 3.436-9.634 26.41 26.41 0 0 0 21.403 21.414z" fill="#d0d0d0" opacity=".674"/><g fill="#e0e0e0"><ellipse opacity=".57" cx="161.671" cy="74.132" rx="2.622" ry="2.623"/><ellipse opacity=".57" cx="166.915" cy="84.625" rx="2.622" ry="2.623"/></g><path d="M769.314 299.76c-17.927-10.36-93.746-6.536-138.008-6.536-262.168 0-554.242 20.557-630.82 86.854-.122.104-.485 54.6 0 99.88h768.828V299.76z" fill="#f3e8d6"/><g transform="translate(402.314 125.012)"><mask id="D" fill="#fff"><use xlink:href="#B"/></mask><path fill="#f3e8d6" mask="url(#D)" d="M-33 207h399V-17H-33z"/><path d="M136-5v25.663l5.292 19.328v10.022s-2.036 2.016-2.646 3.822 0 6.63 0 6.63l2.646 11.916s2.442.146 0 11.403-1.357 14.637-2.103 20.988 0 14.392 0 14.392l3.2 6.03 8.685 5.63 7.328 12.085s-.407 4.8 0 6.007 3.257-11.257 3.257-11.257 5.293-5.227 0-7.64-7.735-6.835-8.55-8.04-.814-3.216-.407-5.63l1.22-7.237c.407-2.815 1.222-11.53 1.222-11.53v-9.78l-1.628-9.247s-1.628-3.62-.814-12.062 2.85-12.662 2.85-12.662 1.628-2.135 2.035-5.2 2.036-3.398 1.222-8.654-2.443-11.2-2.443-11.2-3.2-9.956-3.664-17.28-.407-13.095-.407-14.028S136-5 136-5M91 67.53s9.953 24.757 9.953 25.974v9.74l3.98 16.234c.796 3.247 2.787 17.046 3.185 19.48s3.185 11.04 3.185 11.04v-12.664s1.194-2.84 0-8.117-2.4-7.7-1.194-13.8-1.593-1.624 1.194-6.088 3.98-3.797 2.4-11.233 2-11.9 3.98-17.988 5.972-8.598 5.972-16.068 1.593-10.232-2-15.345-2-2.678-5.972-8.36-6.37-4.87-4.777-10.958 2.4-6.93 2.4-8.133-2-2.124-3.98-5.315-3.185-6.498-6.768-9.3S93 3 93 3l-2 64.53zm131.6-38.77s-1.347 11.704 0 12.9 0 14.857 0 14.857l3.593 17.14s.898 11.37 0 13.376-1.896 10.04-1.896 10.04.35 9.637 0 13.25 0 5.22 0 5.22l5.04 12.448v-8.834s.898-3.614 1.796-6.425-.45-3.212 0-11.243-.266-9.637.316-12.448-1.93-6.484 0-10.67 4.175-5 3.277-9.808 3.103-1.124.204-8.794-4.916-11.685-5.928-15.3 3.257-5.412 0-8.834 1.46-4.148 0-6.5-6.4-.394-6.4-.394m11.28 131.85s-4.767-1.976-8.4-4.348-6.04-6.243-6.04-6.243-2.013-2.3-3.623 0-.403 1.75-3.623 4.787-1.208 5.804-4.43 5.804-4.026-3.557-12.883 0-8.857 5.534-8.857 5.534l-10.468 7.114c-1.208.8-1.6-1.186-3.22 0s-9.35.193-9.35.193V178l16.194-1.58s0 .395 2.818-1.186 8.455-3.953 11.273-5.93 7.65-3.557 7.65-3.557 11.273 1.976 13.286 1.976 7.113-1.58 7.113-1.58 1.342-1.58 3.355-.8 13.7.8 15.3.8.806-2.767 8.455.395 6.844 2.37 10.065 4.348 8.454 1.976 8.454 1.976l6.04-.395-14.1-4.743s-7.65-4.1-9.26-4.223-4.43 1.3-5.636 0-10.13-2.9-10.13-2.9m-80.598-2.515l-6.84-4.758c-2.414-1.983-4.023-6.5-4.023-6.5s4.023-8.53 0-4.984-8.448 6.005-8.448 6.005l-9.298 6.263c.046 1.982.046 3.965-3.172 3.965s-7.643-.793-9.252 0-4.247 0-4.247 0 5.855 5.948 11.085 5.55 16.895-2.254 16.895-2.254 4.425.52 7.24 0 10.057-.272 10.057 0 3.218 2.292 4.827 2.273h7.643c6.034-.02 2.815.774 6.034-.02l3.218-.793-21.722-4.758zM189 14s2.308 1.422 2.692 7.462.77 4.835 0 9.654-1.864 8.032-1.124 11.245 1.568 8.434 1.568 8.434-.325 1.285 0 7.27.83 9.197 0 12.008.963 2.492.452 6.065.093 18.433.093 18.433v5.622s-.934 11.647 0 13.655 2.472-16.336 2.472-16.336l1.538-7.244S199 83.726 199 78.505V66.457l-5-11.646s-.385-5.142 0-6.186 0-5.46 0-5.46.385.402 0-6.024 0-9.705 0-9.705-.77-3.98 0-5.974S194 14 194 14h-5zM75.786 91.02s-1.216 1.214 0 5.574-.8 5.568 0 8.8-1.08 6.845-.54 10.872 4.2 6.845 4.2 6.845 2.432 3.22 4.458 7.248 3.648 2.82 3.648 6.845 2.027 3.624-2.432 8.456-7.296 7.605-7.296 7.605-4.053.045-6.08 2.46-3.648.656-2.837 6.57 1.6 4.705-.213 9.537 2.645 2.013-6.678 5.234-10.944 2.416-17.43 3.22-2.837-2.82-14.186 0-10.583 3.34-18.645 3.22-3.22-2.02-6.9.016 1.576.867-3.67 2.036-6.463 4.87-8.084 0-6.08-9.3 0-18.158 15.806-18.84 15.806-18.84l18.645-17.397s4.25-9.664 11.448-22.55 5.17-12.885 9.63-14.093 10.538-3.76 12.97-3.5 14.186 0 14.186 0M322 162s-1.608 1.465-3.242 3.83-4.505 5.464-4.505 5.464l-7.9 3.485c-2.3.774-3.102.774-8.25 2.7s-9.1 2.323-9.1 2.323 14.656 1.162 22.974-2.323 7.77-3.098 10.025-3.098 10.97 5.607 10.97 5.607h8.714l8.318-5.22v-7.358s-15.448-4.8-17.43-4.138S322 162 322 162" mask="url(#D)" fill="#d4c3a5"/></g><path d="M.204 85.972c1.11-4.37 2.292-8.427 3.502-12.385.595-2 1.224-3.895 1.84-5.852l1.88-5.672a224.15 224.15 0 0 1 3.928-10.662l4.057-10.16 4.016-10.303 4.036-10.213L31.574.47l.14.565-7.565 22.5-3.8 11.147-3.83 11.075-3.79 11.21a219.71 219.71 0 0 1-3.915 10.77l-2.045 4.972-2.086 4.837c-1.388 3.207-2.837 6.223-4.34 9.038l-.14-.6z" transform="matrix(.707107 .707107 -.707107 .707107 715.137333 66.490798)" fill="url(#C)" opacity=".7" fill-rule="nonzero"/><path d="M588.313 83.012l-1.036-2.14a3.22 3.22 0 0 0-1.345-1.417l-2.62-1.444 2.545-1.32a3.22 3.22 0 0 0 1.436-1.497l1.02-2.183 1.02 2.183a3.22 3.22 0 0 0 1.436 1.497l2.545 1.32-2.62 1.444a3.22 3.22 0 0 0-1.344 1.417l-1.036 2.14zm-368.5-27l-.518-1.07a1.61 1.61 0 0 0-.672-.709l-1.3-.722 1.272-.66a1.61 1.61 0 0 0 .718-.748l.5-1.1.5 1.1a1.61 1.61 0 0 0 .718.748l1.272.66-1.3.722a1.61 1.61 0 0 0-.672.709l-.518 1.07z" fill="#fff"/></g></svg>